G04 ================== begin FILE IDENTIFICATION RECORD ==================*
G04 Layout Name:  E:/项目资料/魔方机器人/3_Hardware/V2/Pcb/Cuberobot.brd*
G04 Film Name:    SILKSCREEN_TOP*
G04 File Format:  Gerber RS274X*
G04 File Origin:  Cadence Allegro 16.6-P004*
G04 Origin Date:  Thu Apr 07 19:28:32 2016*
G04 *
G04 Layer:  REF DES/SILKSCREEN_TOP*
G04 Layer:  PACKAGE GEOMETRY/SILKSCREEN_TOP*
G04 Layer:  BOARD GEOMETRY/OUTLINE*
G04 Layer:  BOARD GEOMETRY/SILKSCREEN_TOP*
G04 *
G04 Offset:    (0 0)*
G04 Mirror:    No*
G04 Mode:      Positive*
G04 Rotation:  0*
G04 FullContactRelief:  No*
G04 UndefLineWidth:     6*
G04 ================== end FILE IDENTIFICATION RECORD ====================*
%FSLAX35Y35*MOIN*%
%IR0*IPPOS*OFA0.00000B0.00000*MIA0B0*SFA1.00000B1.00000*%
%ADD10C,.01*%
%ADD11C,.004*%
%ADD12C,.005*%
%ADD13C,.006*%
%ADD14C,.008*%
G75*
%LPD*%
G75*
G36*
G01X33300Y121100D02*
G03I-2000J0D01*
G37*
G36*
G01X138700Y99000D02*
G03I-400J0D01*
G37*
G36*
G01X147000Y146000D02*
G03I-400J0D01*
G37*
G36*
G01X151500Y44300D02*
G03I-700J0D01*
G37*
G36*
G01X186500Y42500D02*
G03I-2000J0D01*
G37*
G36*
G01X344100Y104300D02*
G03I-1400J0D01*
G37*
G54D10*
G01X10000Y0D02*
X460000D01*
G03X470000Y10000I0J10000D01*
G01Y380000D01*
G03X460000Y390000I-10000J0D01*
G01X10000D01*
G03X0Y380000I0J-10000D01*
G01Y10000D01*
G03X10000Y0I10000J0D01*
G01X48100Y207800D02*
G03I-19743J0D01*
G01X55300Y127100D02*
Y119100D01*
X27300D01*
Y127100D01*
X55300D01*
G01X38200Y203900D02*
Y200700D01*
G01X39800Y202300D02*
X36600D01*
G01X75000Y210000D02*
X65000D01*
Y290000D01*
X75000D01*
Y210000D01*
G01Y300000D02*
X65000D01*
Y380000D01*
X75000D01*
Y300000D01*
G01X87300Y30800D02*
Y70800D01*
X97300D01*
Y30800D01*
X87300D01*
G01X125000Y210000D02*
X115000D01*
Y290000D01*
X125000D01*
Y210000D01*
G01Y300000D02*
X115000D01*
Y380000D01*
X125000D01*
Y300000D01*
G01X145000Y270000D02*
Y230000D01*
X135000D01*
Y270000D01*
X145000D01*
G01Y360000D02*
Y320000D01*
X135000D01*
Y360000D01*
X145000D01*
G01X165000Y210000D02*
X155000D01*
Y290000D01*
X165000D01*
Y210000D01*
G01Y300000D02*
X155000D01*
Y380000D01*
X165000D01*
Y300000D01*
G01X214700Y2600D02*
X174700D01*
Y12600D01*
X214700D01*
Y2600D01*
G01X178500Y66500D02*
X186500D01*
Y38500D01*
X178500D01*
Y66500D01*
G01X215000Y210000D02*
X205000D01*
Y290000D01*
X215000D01*
Y210000D01*
G01Y300000D02*
X205000D01*
Y380000D01*
X215000D01*
Y300000D01*
G01X235000Y270000D02*
Y230000D01*
X225000D01*
Y270000D01*
X235000D01*
G01Y360000D02*
Y320000D01*
X225000D01*
Y360000D01*
X235000D01*
G01X254600Y20600D02*
Y10600D01*
X234600D01*
Y20600D01*
X254600D01*
G01X255000Y210000D02*
X245000D01*
Y290000D01*
X255000D01*
Y210000D01*
G01Y300000D02*
X245000D01*
Y380000D01*
X255000D01*
Y300000D01*
G01X286800Y20500D02*
Y10500D01*
X266800D01*
Y20500D01*
X286800D01*
G01X318500Y20600D02*
Y10600D01*
X298500D01*
Y20600D01*
X318500D01*
G01X295700Y99300D02*
X291700Y103300D01*
Y151300D01*
X295700Y155300D01*
X343700D01*
X347700Y151300D01*
Y103300D01*
X343700Y99300D01*
X295700D01*
G01X305000Y210000D02*
X295000D01*
Y290000D01*
X305000D01*
Y210000D01*
G01Y300000D02*
X295000D01*
Y380000D01*
X305000D01*
Y300000D01*
G01X325000Y270000D02*
Y230000D01*
X315000D01*
Y270000D01*
X325000D01*
G01Y360000D02*
Y320000D01*
X315000D01*
Y360000D01*
X325000D01*
G01X349900Y20500D02*
Y10500D01*
X329900D01*
Y20500D01*
X349900D01*
G01X345000Y210000D02*
X335000D01*
Y290000D01*
X345000D01*
Y210000D01*
G01Y300000D02*
X335000D01*
Y380000D01*
X345000D01*
Y300000D01*
G01X395000Y210000D02*
X385000D01*
Y290000D01*
X395000D01*
Y210000D01*
G01Y300000D02*
X385000D01*
Y380000D01*
X395000D01*
Y300000D01*
G01X433800Y57400D02*
Y67400D01*
X403800D01*
Y57400D01*
X433800D01*
G01X433400Y87000D02*
Y97000D01*
X403400D01*
Y87000D01*
X433400D01*
G01Y121200D02*
Y131200D01*
X403400D01*
Y121200D01*
X433400D01*
G01X433100Y153200D02*
Y163200D01*
X403100D01*
Y153200D01*
X433100D01*
G01X415000Y270000D02*
Y230000D01*
X405000D01*
Y270000D01*
X415000D01*
G01Y360000D02*
Y320000D01*
X405000D01*
Y360000D01*
X415000D01*
G54D11*
G01X280400Y55100D02*
X282200D01*
G01X280400Y56800D02*
Y55100D01*
G01X281600Y70800D02*
G03I-987J43D01*
G01X280600D02*
Y69000D01*
G01X282400Y70800D02*
X280600D01*
G01X296200Y55100D02*
Y56800D01*
G01X294400Y55100D02*
X296200D01*
G01X296400Y70800D02*
X294600D01*
G01X296400Y69000D02*
Y70800D01*
G01X347500Y63800D02*
Y51200D01*
X334900D01*
Y63800D01*
X347500D01*
G01X336800D02*
X334900Y61900D01*
G54D12*
G01X10600Y29400D02*
X29400D01*
Y10600D01*
X10600D01*
Y29400D01*
G01X8300Y91800D02*
G02X11000Y94500I2715J-15D01*
G01X50400D01*
G02X53100Y91800I-15J-2715D01*
G01Y52400D01*
G02X50400Y49700I-2715J15D01*
G01X11000D01*
G02X8300Y52400I15J2715D01*
G01Y91800D01*
G01X9700Y114800D02*
X20900D01*
Y134000D01*
X18500Y136400D01*
X12100D01*
X9700Y134000D01*
Y114800D01*
G01X15300Y126800D02*
X16700Y124400D01*
X13700D01*
X15300Y126800D01*
G01X16700D02*
X13900D01*
G01X10600Y379400D02*
X29400D01*
Y360600D01*
X10600D01*
Y379400D01*
G01X21200Y102200D02*
X18000D01*
G02Y107000I-9J2400D01*
G01X21200D01*
G01X25800Y102200D02*
X22600D01*
G01X25800D02*
G03Y107000I0J2400D01*
G01X22600D01*
G01X15300Y128200D02*
Y123000D01*
G01X40700Y141200D02*
X37500D01*
G02Y146000I-9J2400D01*
G01X40700D01*
G01X45300Y141200D02*
X42100D01*
G01X45300D02*
G03Y146000I0J2400D01*
G01X42100D01*
G01X59200Y96300D02*
Y100700D01*
X64000D01*
Y90300D01*
X59200D01*
Y96300D01*
G01X65800Y117300D02*
Y102500D01*
X57800D01*
Y117300D01*
X65800D01*
G01X57200Y158700D02*
X61600D01*
Y153900D01*
X51200D01*
Y158700D01*
X57200D01*
G01X56500Y201800D02*
Y206200D01*
X61300D01*
Y195800D01*
X56500D01*
Y201800D01*
G01X62700Y306700D02*
Y302300D01*
X57900D01*
Y312700D01*
X62700D01*
Y306700D01*
G01X71400Y43700D02*
X66400D01*
G01X71300Y61000D02*
Y56600D01*
X66500D01*
Y67000D01*
X71300D01*
Y61000D01*
G01X66500Y44500D02*
Y54300D01*
X71300D01*
G01D02*
Y44500D01*
X66500D01*
G01X83200Y94000D02*
Y86600D01*
X74000D01*
Y94000D01*
G01Y98800D02*
Y106200D01*
X83200D01*
Y98800D01*
G01X74000Y153900D02*
X64200D01*
Y158700D01*
G01D02*
X74000D01*
Y153900D01*
G01X74800Y158800D02*
Y153800D01*
G01X80300Y26100D02*
Y29300D01*
G01Y26100D02*
G03X85100I2400J0D01*
G01Y29300D01*
G01Y48700D02*
Y45500D01*
G02X80300I-2400J-9D01*
G01Y48700D01*
G01Y30700D02*
Y33900D01*
G02X85100I2400J9D01*
G01Y30700D01*
G01Y53300D02*
Y50100D01*
G01Y53300D02*
G03X80300I-2400J0D01*
G01Y50100D01*
G01X106500Y91500D02*
Y84100D01*
X97300D01*
Y91500D01*
G01Y96300D02*
Y103700D01*
X106500D01*
Y96300D01*
G01X109700Y139400D02*
Y132000D01*
X100500D01*
Y139400D01*
G01Y144200D02*
Y151600D01*
X109700D01*
Y144200D01*
G01X113200Y90300D02*
G03X118000I2400J0D01*
G01Y93500D01*
G01X113200Y94900D02*
Y98100D01*
G02X118000I2400J9D01*
G01Y94900D01*
G01X113200Y90300D02*
Y93500D01*
G01X121800Y139700D02*
Y136500D01*
G02X117000I-2400J-9D01*
G01Y139700D01*
G01X121800Y144300D02*
G03X117000I-2400J0D01*
G01Y141100D01*
G01X129700Y31500D02*
X126500D01*
G02Y36300I-9J2400D01*
G01X129700D01*
G01X134300Y31500D02*
X131100D01*
G01X134300D02*
G03Y36300I0J2400D01*
G01X131100D01*
G01X125600Y65500D02*
Y56700D01*
G01X122000D02*
Y65500D01*
G01X128300Y67400D02*
X125100D01*
G02Y72200I-9J2400D01*
G01X128300D01*
G01X132900Y67400D02*
X129700D01*
G01X132900D02*
G03Y72200I0J2400D01*
G01X129700D01*
G01X145700Y100600D02*
X146500D01*
Y88200D01*
X131700D01*
Y100600D01*
X145700D01*
G01X139300Y75200D02*
X136100D01*
G02Y80000I-9J2400D01*
G01X139300D01*
G01X122100Y90300D02*
G03X126900I2400J0D01*
G01Y93500D01*
G01X122100Y94900D02*
Y98100D01*
G02X126900I2400J9D01*
G01Y94900D01*
G01X122100Y90300D02*
Y93500D01*
G01X131200Y139700D02*
Y136500D01*
G02X126400I-2400J-9D01*
G01Y139700D01*
G01X131200Y144300D02*
Y141100D01*
G01Y144300D02*
G03X126400I-2400J0D01*
G01Y141100D01*
G01X121800Y144300D02*
Y141100D01*
G01X143900Y75200D02*
X140700D01*
G01X143900D02*
G03Y80000I0J2400D01*
G01X140700D01*
G01Y99800D02*
Y89000D01*
X137500D01*
Y99800D01*
X140700D01*
G01X149000Y146800D02*
Y136000D01*
X145800D01*
Y146800D01*
X149000D01*
G01X154000Y147600D02*
X154800D01*
Y135200D01*
X140000D01*
Y147600D01*
X154000D01*
G01X150300Y216900D02*
Y212500D01*
X145500D01*
Y222900D01*
X150300D01*
Y216900D01*
G01X151400Y307400D02*
Y303000D01*
X146600D01*
Y313400D01*
X151400D01*
Y307400D01*
G01X150200Y77100D02*
X165000D01*
Y69100D01*
X150200D01*
Y77100D01*
G01X154100Y96000D02*
Y99200D01*
G02X158900I2400J9D01*
G01Y96000D01*
G01X154100Y91400D02*
Y94600D01*
G01Y91400D02*
G03X158900I2400J0D01*
G01Y94600D01*
G01X171400Y139800D02*
Y132400D01*
X162200D01*
Y139800D01*
G01Y144600D02*
Y152000D01*
X171400D01*
Y144600D01*
G01X170200Y96100D02*
Y99300D01*
G02X175000I2400J9D01*
G01Y96100D01*
G01X170200Y91500D02*
Y94700D01*
G01Y91500D02*
G03X175000I2400J0D01*
G01Y94700D01*
G01X181100Y142600D02*
Y145800D01*
G02X185900I2400J9D01*
G01Y142600D01*
G01X181100Y138000D02*
Y141200D01*
G01Y138000D02*
G03X185900I2400J0D01*
G01Y141200D01*
G01X196100Y143100D02*
Y146300D01*
G02X200900I2400J9D01*
G01Y143100D01*
G01X196100Y138500D02*
Y141700D01*
G01Y138500D02*
G03X200900I2400J0D01*
G01Y141700D01*
G01X242000Y31800D02*
Y27400D01*
X237200D01*
Y37800D01*
X242000D01*
Y31800D01*
G01X241200Y215800D02*
Y211400D01*
X236400D01*
Y221800D01*
X241200D01*
Y215800D01*
G01X239900Y307900D02*
Y303500D01*
X235100D01*
Y313900D01*
X239900D01*
Y307900D01*
G01X274200Y31700D02*
Y27300D01*
X269400D01*
Y37700D01*
X274200D01*
Y31700D01*
G01X269500Y67800D02*
X266300D01*
G02Y72600I-9J2400D01*
G01X269500D01*
G01X268300Y81300D02*
X272700D01*
Y76500D01*
X262300D01*
Y81300D01*
X268300D01*
G01X277900Y49600D02*
X281100D01*
G02Y44800I9J-2400D01*
G01X277900D01*
G01X273300Y49600D02*
X276500D01*
G01X273300D02*
G03Y44800I0J-2400D01*
G01X276500D01*
G01X274100Y67800D02*
X270900D01*
G01X274100D02*
G03Y72600I0J2400D01*
G01X270900D01*
G01X285500Y80400D02*
Y76000D01*
X280700D01*
Y86400D01*
X285500D01*
Y80400D01*
G01X280100Y101100D02*
X283300D01*
G02Y96300I9J-2400D01*
G01X280100D01*
G01X275500Y101100D02*
X278700D01*
G01X275500D02*
G03Y96300I0J-2400D01*
G01X278700D01*
G01X289100Y163100D02*
X285900D01*
G02Y167900I-9J2400D01*
G01X289100D01*
G01X291100Y37000D02*
X286700D01*
Y41800D01*
X297100D01*
Y37000D01*
X291100D01*
G01X290900Y44900D02*
X287700D01*
G02Y49700I-9J2400D01*
G01X290900D01*
G01X295500Y44900D02*
X292300D01*
G01X295500D02*
G03Y49700I0J2400D01*
G01X292300D01*
G01X288700Y82200D02*
Y85400D01*
G02X293500I2400J9D01*
G01Y82200D01*
G01X288700Y77600D02*
Y80800D01*
G01Y77600D02*
G03X293500I2400J0D01*
G01Y80800D01*
G01X293700Y163100D02*
X290500D01*
G01X293700D02*
G03Y167900I0J2400D01*
G01X290500D01*
G01X303900Y35000D02*
Y39400D01*
X308700D01*
Y29000D01*
X303900D01*
Y35000D01*
G01X324400Y35100D02*
X320000D01*
Y39900D01*
X330400D01*
Y35100D01*
X324400D01*
G01X326100Y59900D02*
X321700D01*
Y64700D01*
X332100D01*
Y59900D01*
X326100D01*
G01X329100Y84100D02*
Y88500D01*
X333900D01*
Y78100D01*
X329100D01*
Y84100D01*
G01X326400Y210500D02*
X330800D01*
Y205700D01*
X320400D01*
Y210500D01*
X326400D01*
G01X331200Y307500D02*
Y303100D01*
X326400D01*
Y313500D01*
X331200D01*
Y307500D01*
G01X344800Y47500D02*
G03Y42700I0J-2400D01*
G01X348000D01*
G01X344800Y47500D02*
X348000D01*
G01X340000Y67100D02*
X335600D01*
Y71900D01*
X346000D01*
Y67100D01*
X340000D01*
G01X347200Y83100D02*
X344000D01*
G02Y87900I-9J2400D01*
G01X347200D01*
G01X349400Y47500D02*
X352600D01*
G02Y42700I9J-2400D01*
G01X349400D01*
G01X355600Y58300D02*
X358800D01*
G01X355600D02*
G03Y53500I0J-2400D01*
G01X358800D01*
G01X355400Y61700D02*
X352200D01*
G02Y66500I-9J2400D01*
G01X355400D01*
G01X360000Y61700D02*
X356800D01*
G01X360000D02*
G03Y66500I0J2400D01*
G01X356800D01*
G01X351800Y83100D02*
X348600D01*
G01X351800D02*
G03Y87900I0J2400D01*
G01X348600D01*
G01X352200Y164800D02*
X349000D01*
G02Y169600I-9J2400D01*
G01X352200D01*
G01X356800Y164800D02*
X353600D01*
G01X356800D02*
G03Y169600I0J2400D01*
G01X353600D01*
G01X360200Y58300D02*
X363400D01*
G02Y53500I9J-2400D01*
G01X360200D01*
G01X362600Y111500D02*
Y114700D01*
G02X367400I2400J9D01*
G01Y111500D01*
G01X362600Y106900D02*
Y110100D01*
G01Y106900D02*
G03X367400I2400J0D01*
G01Y110100D01*
G01X384300Y101900D02*
X381100D01*
G02Y106700I-9J2400D01*
G01X384300D01*
G01X388900Y101900D02*
X385700D01*
G01X388900D02*
G03Y106700I0J2400D01*
G01X385700D01*
G01X384100Y156800D02*
X380900D01*
G02Y161600I-9J2400D01*
G01X384100D01*
G01X388700Y156800D02*
X385500D01*
G01X388700D02*
G03Y161600I0J2400D01*
G01X385500D01*
G01X414400Y49200D02*
X417600D01*
G02Y44400I9J-2400D01*
G01X414400D01*
G01X409800Y49200D02*
X413000D01*
G01X409800D02*
G03Y44400I0J-2400D01*
G01X413000D01*
G01X415000Y80900D02*
X418200D01*
G02Y76100I9J-2400D01*
G01X415000D01*
G01X410400Y80900D02*
X413600D01*
G01X410400D02*
G03Y76100I0J-2400D01*
G01X413600D01*
G01X415000Y115800D02*
X418200D01*
G02Y111000I9J-2400D01*
G01X415000D01*
G01X410400Y115800D02*
X413600D01*
G01X410400D02*
G03Y111000I0J-2400D01*
G01X413600D01*
G01X413900Y146000D02*
X417100D01*
G02Y141200I9J-2400D01*
G01X413900D01*
G01X409300Y146000D02*
X412500D01*
G01X409300D02*
G03Y141200I0J-2400D01*
G01X412500D01*
G01X440600Y29400D02*
X459400D01*
Y10600D01*
X440600D01*
Y29400D01*
G01Y379400D02*
X459400D01*
Y360600D01*
X440600D01*
Y379400D01*
G01X459000Y70700D02*
X462200D01*
G02Y65900I9J-2400D01*
G01X459000D01*
G01X454400Y70700D02*
X457600D01*
G01X454400D02*
G03Y65900I0J-2400D01*
G01X457600D01*
G01X458100Y75500D02*
X453700D01*
Y80300D01*
X464100D01*
Y75500D01*
X458100D01*
G54D13*
G01X18100Y100400D02*
X17800Y100600D01*
X17400Y100700D01*
X16900D01*
X16400Y100500D01*
X16000Y100200D01*
X15700Y99900D01*
X15400Y99300D01*
Y98800D01*
X15500Y98200D01*
X15700Y97900D01*
X16000Y97500D01*
X16400Y97300D01*
X16800Y97200D01*
X17300D01*
X17700Y97300D01*
X18000Y97500D01*
X18300Y97700D01*
G01X21000Y97200D02*
X21100Y98000D01*
X21300Y98600D01*
X21600Y99200D01*
X21900Y99800D01*
X22300Y100700D01*
X20000D01*
G01X25400D02*
X25000Y100600D01*
X24600Y100300D01*
X24400Y99900D01*
X24200Y99500D01*
Y98900D01*
Y98400D01*
X24400Y98000D01*
X24600Y97600D01*
X25000Y97300D01*
X25400Y97200D01*
X25900Y97300D01*
X26300Y97600D01*
X26500Y98000D01*
X26700Y98400D01*
Y98900D01*
Y99500D01*
X26500Y99900D01*
X26300Y100300D01*
X25900Y100600D01*
X25400Y100700D01*
G01X12000Y137700D02*
Y141200D01*
X13100D01*
X13600Y141000D01*
X14000Y140800D01*
X14200Y140400D01*
X14500Y140000D01*
Y139400D01*
Y138900D01*
X14200Y138500D01*
X14000Y138100D01*
X13600Y137900D01*
X13100Y137700D01*
X12000D01*
G01X17500D02*
Y141200D01*
X16800Y140500D01*
G01Y137700D02*
X18200D01*
G01X15500Y156600D02*
Y153100D01*
G01X14200Y156600D02*
X16900D01*
G01X18700Y153100D02*
Y156600D01*
X20100D01*
X20600Y156400D01*
X20900Y156000D01*
X21000Y155600D01*
X20900Y155100D01*
X20600Y154700D01*
X20100Y154600D01*
X18700D01*
G01X24100Y153100D02*
Y156600D01*
X23400Y155900D01*
G01Y153100D02*
X24800D01*
G01X28400D02*
Y156600D01*
X27700Y155900D01*
G01Y153100D02*
X29100D01*
G01X8800Y319200D02*
Y316700D01*
X9000Y316200D01*
X9500Y315800D01*
X10000Y315700D01*
X10600Y315800D01*
X11100Y316200D01*
X11300Y316700D01*
Y319200D01*
G01X13100Y316400D02*
X13400Y316000D01*
X13900Y315800D01*
X14400Y315700D01*
X14900Y315800D01*
X15300Y316000D01*
X15600Y316400D01*
X15700Y316700D01*
X15600Y317200D01*
X15200Y317400D01*
X14800Y317600D01*
X14200D01*
G01X14800D02*
X15100Y317700D01*
X15400Y318000D01*
X15500Y318400D01*
X15400Y318700D01*
X15100Y319000D01*
X14600Y319200D01*
X14100Y319100D01*
X13500Y318900D01*
G01X18500Y315700D02*
X18600Y316500D01*
X18800Y317100D01*
X19100Y317700D01*
X19400Y318300D01*
X19800Y319200D01*
X17500D01*
G01X25600Y46800D02*
Y43300D01*
X27900D01*
G01X31000D02*
Y46800D01*
X30300Y46100D01*
G01Y43300D02*
X31700D01*
G01X35300Y46800D02*
X34900Y46700D01*
X34500Y46400D01*
X34300Y46000D01*
X34100Y45600D01*
Y45000D01*
Y44500D01*
X34300Y44100D01*
X34500Y43700D01*
X34900Y43400D01*
X35300Y43300D01*
X35800Y43400D01*
X36200Y43700D01*
X36400Y44100D01*
X36600Y44500D01*
Y45000D01*
Y45600D01*
X36400Y46000D01*
X36200Y46400D01*
X35800Y46700D01*
X35300Y46800D01*
G01X25000Y184400D02*
X24700Y184600D01*
X24300Y184700D01*
X23800D01*
X23300Y184500D01*
X22900Y184200D01*
X22600Y183900D01*
X22300Y183300D01*
Y182800D01*
X22400Y182200D01*
X22600Y181900D01*
X22900Y181500D01*
X23300Y181300D01*
X23700Y181200D01*
X24200D01*
X24600Y181300D01*
X24900Y181500D01*
X25200Y181700D01*
G01X27900Y181200D02*
X28000Y182000D01*
X28200Y182600D01*
X28500Y183200D01*
X28800Y183800D01*
X29200Y184700D01*
X26900D01*
G01X31100Y181900D02*
X31400Y181500D01*
X31900Y181300D01*
X32400Y181200D01*
X32900Y181300D01*
X33300Y181500D01*
X33600Y181900D01*
X33700Y182200D01*
X33600Y182700D01*
X33200Y182900D01*
X32800Y183100D01*
X32200D01*
G01X32800D02*
X33100Y183200D01*
X33400Y183500D01*
X33500Y183900D01*
X33400Y184200D01*
X33100Y184500D01*
X32600Y184700D01*
X32100Y184600D01*
X31500Y184400D01*
G01X37900Y150200D02*
X37600Y150400D01*
X37200Y150500D01*
X36700D01*
X36200Y150300D01*
X35800Y150000D01*
X35500Y149700D01*
X35200Y149100D01*
Y148600D01*
X35300Y148000D01*
X35500Y147700D01*
X35800Y147300D01*
X36200Y147100D01*
X36600Y147000D01*
X37100D01*
X37500Y147100D01*
X37800Y147300D01*
X38100Y147500D01*
G01X40800Y147000D02*
X40900Y147800D01*
X41100Y148400D01*
X41400Y149000D01*
X41700Y149600D01*
X42100Y150500D01*
X39800D01*
G01X46000Y147000D02*
Y150500D01*
X43800Y148000D01*
X46700D01*
G01X57700Y48100D02*
Y51600D01*
X58800D01*
X59300Y51400D01*
X59700Y51200D01*
X59900Y50800D01*
X60200Y50400D01*
Y49800D01*
Y49300D01*
X59900Y48900D01*
X59700Y48500D01*
X59300Y48300D01*
X58800Y48100D01*
X57700D01*
G01X62000Y48800D02*
X62300Y48400D01*
X62800Y48200D01*
X63300Y48100D01*
X63800Y48200D01*
X64200Y48400D01*
X64500Y48800D01*
X64600Y49100D01*
X64500Y49600D01*
X64100Y49800D01*
X63700Y50000D01*
X63100D01*
G01X63700D02*
X64000Y50100D01*
X64300Y50400D01*
X64400Y50800D01*
X64300Y51100D01*
X64000Y51400D01*
X63500Y51600D01*
X63000Y51500D01*
X62400Y51300D01*
G01X47300Y95900D02*
Y99400D01*
X48700D01*
X49200Y99200D01*
X49500Y99000D01*
X49600Y98500D01*
X49500Y98100D01*
X49200Y97800D01*
X48700Y97600D01*
X47300D01*
G01X48700D02*
X49600Y95900D01*
G01X51500Y96600D02*
X51800Y96200D01*
X52300Y96000D01*
X52800Y95900D01*
X53300Y96000D01*
X53700Y96200D01*
X54000Y96600D01*
X54100Y96900D01*
X54000Y97400D01*
X53600Y97600D01*
X53200Y97800D01*
X52600D01*
G01X53200D02*
X53500Y97900D01*
X53800Y98200D01*
X53900Y98600D01*
X53800Y98900D01*
X53500Y99200D01*
X53000Y99400D01*
X52500Y99300D01*
X51900Y99100D01*
G01X55900Y97400D02*
X56300Y97800D01*
X56700Y98000D01*
X57200Y98100D01*
X57600Y98000D01*
X57900Y97800D01*
X58100Y97400D01*
X58200Y97000D01*
X58100Y96700D01*
X57900Y96300D01*
X57500Y96000D01*
X57100Y95900D01*
X56600Y96000D01*
X56200Y96400D01*
X56000Y96900D01*
X55900Y97500D01*
X56100Y98200D01*
X56200Y98600D01*
X56500Y99000D01*
X56900Y99300D01*
X57300Y99400D01*
X57800Y99300D01*
X58000Y99000D01*
G01X57600Y118500D02*
Y122000D01*
X59000D01*
X59500Y121800D01*
X59800Y121600D01*
X59900Y121100D01*
X59800Y120700D01*
X59500Y120400D01*
X59000Y120200D01*
X57600D01*
G01X59000D02*
X59900Y118500D01*
G01X61800Y119200D02*
X62100Y118800D01*
X62600Y118600D01*
X63100Y118500D01*
X63600Y118600D01*
X64000Y118800D01*
X64300Y119200D01*
X64400Y119500D01*
X64300Y120000D01*
X63900Y120200D01*
X63500Y120400D01*
X62900D01*
G01X63500D02*
X63800Y120500D01*
X64100Y120800D01*
X64200Y121200D01*
X64100Y121500D01*
X63800Y121800D01*
X63300Y122000D01*
X62800Y121900D01*
X62200Y121700D01*
G01X67200Y118500D02*
X67300Y119300D01*
X67500Y119900D01*
X67800Y120500D01*
X68100Y121100D01*
X68500Y122000D01*
X66200D01*
G01X56300Y136100D02*
Y133600D01*
X56500Y133100D01*
X57000Y132700D01*
X57500Y132600D01*
X58100Y132700D01*
X58600Y133100D01*
X58800Y133600D01*
Y136100D01*
G01X60600Y133300D02*
X60900Y132900D01*
X61400Y132700D01*
X61900Y132600D01*
X62400Y132700D01*
X62800Y132900D01*
X63100Y133300D01*
X63200Y133600D01*
X63100Y134100D01*
X62700Y134300D01*
X62300Y134500D01*
X61700D01*
G01X62300D02*
X62600Y134600D01*
X62900Y134900D01*
X63000Y135300D01*
X62900Y135600D01*
X62600Y135900D01*
X62100Y136100D01*
X61600Y136000D01*
X61000Y135800D01*
G01X65000Y134100D02*
X65400Y134500D01*
X65800Y134700D01*
X66300Y134800D01*
X66700Y134700D01*
X67000Y134500D01*
X67200Y134100D01*
X67300Y133700D01*
X67200Y133400D01*
X67000Y133000D01*
X66600Y132700D01*
X66200Y132600D01*
X65700Y132700D01*
X65300Y133100D01*
X65100Y133600D01*
X65000Y134200D01*
X65200Y134900D01*
X65300Y135300D01*
X65600Y135700D01*
X66000Y136000D01*
X66400Y136100D01*
X66900Y136000D01*
X67100Y135700D01*
G01X49600Y160600D02*
Y164100D01*
X51000D01*
X51500Y163900D01*
X51800Y163700D01*
X51900Y163200D01*
X51800Y162800D01*
X51500Y162500D01*
X51000Y162300D01*
X49600D01*
G01X51000D02*
X51900Y160600D01*
G01X53800Y161300D02*
X54100Y160900D01*
X54600Y160700D01*
X55100Y160600D01*
X55600Y160700D01*
X56000Y160900D01*
X56300Y161300D01*
X56400Y161600D01*
X56300Y162100D01*
X55900Y162300D01*
X55500Y162500D01*
X54900D01*
G01X55500D02*
X55800Y162600D01*
X56100Y162900D01*
X56200Y163300D01*
X56100Y163600D01*
X55800Y163900D01*
X55300Y164100D01*
X54800Y164000D01*
X54200Y163800D01*
G01X59300Y160600D02*
X59800Y160700D01*
X60200Y160800D01*
X60500Y161100D01*
X60600Y161500D01*
X60500Y161900D01*
X60200Y162300D01*
X59600Y162500D01*
X59100D01*
X58700Y162600D01*
X58400Y162900D01*
X58300Y163300D01*
X58500Y163700D01*
X58900Y164000D01*
X59300Y164100D01*
X59800Y164000D01*
X60200Y163700D01*
X60400Y163300D01*
X60300Y162900D01*
X60000Y162600D01*
X59600Y162500D01*
X59100D01*
X58500Y162300D01*
X58200Y161900D01*
X58100Y161500D01*
X58200Y161100D01*
X58500Y160800D01*
X58900Y160700D01*
X59300Y160600D01*
G01X57100Y182300D02*
Y178800D01*
G01X55800Y182300D02*
X58500D01*
G01X60300Y178800D02*
Y182300D01*
X61700D01*
X62200Y182100D01*
X62500Y181700D01*
X62600Y181300D01*
X62500Y180800D01*
X62200Y180400D01*
X61700Y180300D01*
X60300D01*
G01X64600Y181700D02*
X65000Y182100D01*
X65400Y182200D01*
X65900Y182300D01*
X66500Y182200D01*
X66900Y181900D01*
X67000Y181500D01*
X66900Y181200D01*
X66700Y180900D01*
X65500Y180300D01*
X65000Y179900D01*
X64600Y179300D01*
X64500Y178800D01*
X67000D01*
G01X70800D02*
Y182300D01*
X68600Y179800D01*
X71500D01*
G01X72900Y182300D02*
X74300Y178800D01*
X75800Y182300D01*
G01X64500Y287500D02*
X62000D01*
X61500Y287300D01*
X61100Y286800D01*
X61000Y286300D01*
X61100Y285700D01*
X61500Y285200D01*
X62000Y285000D01*
X64500D01*
G01X61700Y283200D02*
X61300Y282900D01*
X61100Y282400D01*
X61000Y281900D01*
X61100Y281400D01*
X61300Y281000D01*
X61700Y280700D01*
X62000Y280600D01*
X62500Y280700D01*
X62700Y281100D01*
X62900Y281500D01*
Y282100D01*
G01Y281500D02*
X63000Y281200D01*
X63300Y280900D01*
X63700Y280800D01*
X64000Y280900D01*
X64300Y281200D01*
X64500Y281700D01*
X64400Y282200D01*
X64200Y282800D01*
G01X61700Y278900D02*
X61300Y278600D01*
X61100Y278100D01*
X61000Y277600D01*
X61100Y277100D01*
X61300Y276700D01*
X61700Y276400D01*
X62000Y276300D01*
X62500Y276400D01*
X62700Y276800D01*
X62900Y277200D01*
Y277800D01*
G01Y277200D02*
X63000Y276900D01*
X63300Y276600D01*
X63700Y276500D01*
X64000Y276600D01*
X64300Y276900D01*
X64500Y277400D01*
X64400Y277900D01*
X64200Y278500D01*
G01X49600Y315600D02*
Y319100D01*
X51000D01*
X51500Y318900D01*
X51800Y318700D01*
X51900Y318200D01*
X51800Y317800D01*
X51500Y317500D01*
X51000Y317300D01*
X49600D01*
G01X51000D02*
X51900Y315600D01*
G01X53800Y316100D02*
X54100Y315800D01*
X54500Y315700D01*
X55000Y315600D01*
X55600Y315700D01*
X56000Y315900D01*
X56300Y316400D01*
Y316800D01*
X56200Y317300D01*
X55900Y317600D01*
X55500Y317800D01*
X55100Y317900D01*
X54700Y317800D01*
X54200Y317600D01*
X54300Y319100D01*
X55900D01*
G01X58100Y316100D02*
X58400Y315800D01*
X58800Y315700D01*
X59300Y315600D01*
X59900Y315700D01*
X60300Y315900D01*
X60600Y316400D01*
Y316800D01*
X60500Y317300D01*
X60200Y317600D01*
X59800Y317800D01*
X59400Y317900D01*
X59000Y317800D01*
X58500Y317600D01*
X58600Y319100D01*
X60200D01*
G01X70800Y30900D02*
X70500Y31100D01*
X70100Y31200D01*
X69600D01*
X69100Y31000D01*
X68700Y30700D01*
X68400Y30400D01*
X68100Y29800D01*
Y29300D01*
X68200Y28700D01*
X68400Y28400D01*
X68700Y28000D01*
X69100Y27800D01*
X69500Y27700D01*
X70000D01*
X70400Y27800D01*
X70700Y28000D01*
X71000Y28200D01*
G01X72700Y29200D02*
X73100Y29600D01*
X73500Y29800D01*
X74000Y29900D01*
X74400Y29800D01*
X74700Y29600D01*
X74900Y29200D01*
X75000Y28800D01*
X74900Y28500D01*
X74700Y28100D01*
X74300Y27800D01*
X73900Y27700D01*
X73400Y27800D01*
X73000Y28200D01*
X72800Y28700D01*
X72700Y29300D01*
X72900Y30000D01*
X73000Y30400D01*
X73300Y30800D01*
X73700Y31100D01*
X74100Y31200D01*
X74600Y31100D01*
X74800Y30800D01*
G01X78000Y27700D02*
X78100Y28500D01*
X78300Y29100D01*
X78600Y29700D01*
X78900Y30300D01*
X79300Y31200D01*
X77000D01*
G01X77200Y60300D02*
X76900Y60500D01*
X76500Y60600D01*
X76000D01*
X75500Y60400D01*
X75100Y60100D01*
X74800Y59800D01*
X74500Y59200D01*
Y58700D01*
X74600Y58100D01*
X74800Y57800D01*
X75100Y57400D01*
X75500Y57200D01*
X75900Y57100D01*
X76400D01*
X76800Y57200D01*
X77100Y57400D01*
X77400Y57600D01*
G01X79100Y58600D02*
X79500Y59000D01*
X79900Y59200D01*
X80400Y59300D01*
X80800Y59200D01*
X81100Y59000D01*
X81300Y58600D01*
X81400Y58200D01*
X81300Y57900D01*
X81100Y57500D01*
X80700Y57200D01*
X80300Y57100D01*
X79800Y57200D01*
X79400Y57600D01*
X79200Y58100D01*
X79100Y58700D01*
X79300Y59400D01*
X79400Y59800D01*
X79700Y60200D01*
X80100Y60500D01*
X80500Y60600D01*
X81000Y60500D01*
X81200Y60200D01*
G01X84500Y57100D02*
X85000Y57200D01*
X85400Y57300D01*
X85700Y57600D01*
X85800Y58000D01*
X85700Y58400D01*
X85400Y58800D01*
X84800Y59000D01*
X84300D01*
X83900Y59100D01*
X83600Y59400D01*
X83500Y59800D01*
X83700Y60200D01*
X84100Y60500D01*
X84500Y60600D01*
X85000Y60500D01*
X85400Y60200D01*
X85600Y59800D01*
X85500Y59400D01*
X85200Y59100D01*
X84800Y59000D01*
X84300D01*
X83700Y58800D01*
X83400Y58400D01*
X83300Y58000D01*
X83400Y57600D01*
X83700Y57300D01*
X84100Y57200D01*
X84500Y57100D01*
G01X62400Y68000D02*
Y71500D01*
X63800D01*
X64300Y71300D01*
X64600Y71100D01*
X64700Y70600D01*
X64600Y70200D01*
X64300Y69900D01*
X63800Y69700D01*
X62400D01*
G01X63800D02*
X64700Y68000D01*
G01X66600Y68700D02*
X66900Y68300D01*
X67400Y68100D01*
X67900Y68000D01*
X68400Y68100D01*
X68800Y68300D01*
X69100Y68700D01*
X69200Y69000D01*
X69100Y69500D01*
X68700Y69700D01*
X68300Y69900D01*
X67700D01*
G01X68300D02*
X68600Y70000D01*
X68900Y70300D01*
X69000Y70700D01*
X68900Y71000D01*
X68600Y71300D01*
X68100Y71500D01*
X67600Y71400D01*
X67000Y71200D01*
G01X71200Y68400D02*
X71600Y68100D01*
X72000Y68000D01*
X72500Y68100D01*
X72900Y68500D01*
X73200Y69000D01*
X73300Y69500D01*
Y70200D01*
X73200Y70700D01*
X72900Y71100D01*
X72600Y71400D01*
X72100Y71500D01*
X71700Y71400D01*
X71300Y71100D01*
X71100Y70800D01*
X71000Y70300D01*
X71100Y69900D01*
X71400Y69500D01*
X71700Y69300D01*
X72100Y69200D01*
X72600Y69300D01*
X73000Y69600D01*
X73300Y70200D01*
G01X75300Y110500D02*
X75000Y110700D01*
X74600Y110800D01*
X74100D01*
X73600Y110600D01*
X73200Y110300D01*
X72900Y110000D01*
X72600Y109400D01*
Y108900D01*
X72700Y108300D01*
X72900Y108000D01*
X73200Y107600D01*
X73600Y107400D01*
X74000Y107300D01*
X74500D01*
X74900Y107400D01*
X75200Y107600D01*
X75500Y107800D01*
G01X78200Y107300D02*
X78300Y108100D01*
X78500Y108700D01*
X78800Y109300D01*
X79100Y109900D01*
X79500Y110800D01*
X77200D01*
G01X81400Y107800D02*
X81700Y107500D01*
X82100Y107400D01*
X82600Y107300D01*
X83200Y107400D01*
X83600Y107600D01*
X83900Y108100D01*
Y108500D01*
X83800Y109000D01*
X83500Y109300D01*
X83100Y109500D01*
X82700Y109600D01*
X82300Y109500D01*
X81800Y109300D01*
X81900Y110800D01*
X83500D01*
G01X65800Y160900D02*
Y164400D01*
X66900D01*
X67400Y164200D01*
X67800Y164000D01*
X68000Y163600D01*
X68300Y163200D01*
Y162600D01*
Y162100D01*
X68000Y161700D01*
X67800Y161300D01*
X67400Y161100D01*
X66900Y160900D01*
X65800D01*
G01X70200Y163800D02*
X70600Y164200D01*
X71000Y164300D01*
X71500Y164400D01*
X72100Y164300D01*
X72500Y164000D01*
X72600Y163600D01*
X72500Y163300D01*
X72300Y163000D01*
X71100Y162400D01*
X70600Y162000D01*
X70200Y161400D01*
X70100Y160900D01*
X72600D01*
G01X63600Y198700D02*
Y202200D01*
X65000D01*
X65500Y202000D01*
X65800Y201800D01*
X65900Y201300D01*
X65800Y200900D01*
X65500Y200600D01*
X65000Y200400D01*
X63600D01*
G01X65000D02*
X65900Y198700D01*
G01X67800Y199200D02*
X68100Y198900D01*
X68500Y198800D01*
X69000Y198700D01*
X69600Y198800D01*
X70000Y199000D01*
X70300Y199500D01*
Y199900D01*
X70200Y200400D01*
X69900Y200700D01*
X69500Y200900D01*
X69100Y201000D01*
X68700Y200900D01*
X68200Y200700D01*
X68300Y202200D01*
X69900D01*
G01X72100Y199400D02*
X72400Y199000D01*
X72900Y198800D01*
X73400Y198700D01*
X73900Y198800D01*
X74300Y199000D01*
X74600Y199400D01*
X74700Y199700D01*
X74600Y200200D01*
X74200Y200400D01*
X73800Y200600D01*
X73200D01*
G01X73800D02*
X74100Y200700D01*
X74400Y201000D01*
X74500Y201400D01*
X74400Y201700D01*
X74100Y202000D01*
X73600Y202200D01*
X73100Y202100D01*
X72500Y201900D01*
G01X86700Y26200D02*
X87000Y25800D01*
X87300Y25600D01*
X87700Y25500D01*
X88200Y25600D01*
X88600Y25800D01*
X88900Y26200D01*
X89000Y26700D01*
Y29000D01*
G01X91000Y28400D02*
X91400Y28800D01*
X91800Y28900D01*
X92300Y29000D01*
X92900Y28900D01*
X93300Y28600D01*
X93400Y28200D01*
X93300Y27900D01*
X93100Y27600D01*
X91900Y27000D01*
X91400Y26600D01*
X91000Y26000D01*
X90900Y25500D01*
X93400D01*
G01X95200Y26200D02*
X95500Y25800D01*
X96000Y25600D01*
X96500Y25500D01*
X97000Y25600D01*
X97400Y25800D01*
X97700Y26200D01*
X97800Y26500D01*
X97700Y27000D01*
X97300Y27200D01*
X96900Y27400D01*
X96300D01*
G01X96900D02*
X97200Y27500D01*
X97500Y27800D01*
X97600Y28200D01*
X97500Y28500D01*
X97200Y28800D01*
X96700Y29000D01*
X96200Y28900D01*
X95600Y28700D01*
G01X80700Y378700D02*
Y376200D01*
X80900Y375700D01*
X81400Y375300D01*
X81900Y375200D01*
X82500Y375300D01*
X83000Y375700D01*
X83200Y376200D01*
Y378700D01*
G01X85000Y375900D02*
X85300Y375500D01*
X85800Y375300D01*
X86300Y375200D01*
X86800Y375300D01*
X87200Y375500D01*
X87500Y375900D01*
X87600Y376200D01*
X87500Y376700D01*
X87100Y376900D01*
X86700Y377100D01*
X86100D01*
G01X86700D02*
X87000Y377200D01*
X87300Y377500D01*
X87400Y377900D01*
X87300Y378200D01*
X87000Y378500D01*
X86500Y378700D01*
X86000Y378600D01*
X85400Y378400D01*
G01X91300Y375200D02*
Y378700D01*
X89100Y376200D01*
X92000D01*
G01X99300Y44700D02*
Y48200D01*
X100400D01*
X100900Y48000D01*
X101300Y47800D01*
X101500Y47400D01*
X101800Y47000D01*
Y46400D01*
Y45900D01*
X101500Y45500D01*
X101300Y45100D01*
X100900Y44900D01*
X100400Y44700D01*
X99300D01*
G01X104100Y48200D02*
X105500D01*
G01X104800D02*
Y44700D01*
G01X104100D02*
X105500D01*
G01X109100D02*
X108700Y44800D01*
X108300Y45000D01*
X107900Y45300D01*
X107700Y45700D01*
X107600Y46200D01*
Y46700D01*
X107700Y47200D01*
X107900Y47600D01*
X108300Y47900D01*
X108700Y48100D01*
X109100Y48200D01*
X109600Y48100D01*
X110000Y47900D01*
X110400Y47600D01*
X110600Y47200D01*
X110700Y46700D01*
Y46200D01*
X110600Y45700D01*
X110400Y45300D01*
X110000Y45000D01*
X109600Y44800D01*
X109100Y44700D01*
G01X101500Y37000D02*
X101200Y37200D01*
X100800Y37300D01*
X100300D01*
X99800Y37100D01*
X99400Y36800D01*
X99100Y36500D01*
X98800Y35900D01*
Y35400D01*
X98900Y34800D01*
X99100Y34500D01*
X99400Y34100D01*
X99800Y33900D01*
X100200Y33800D01*
X100700D01*
X101100Y33900D01*
X101400Y34100D01*
X101700Y34300D01*
G01X103400Y37300D02*
Y33800D01*
X105700D01*
G01X107600D02*
Y37300D01*
G01X109800D02*
X107600Y35100D01*
G01X110100Y33800D02*
X108600Y36100D01*
G01X99100Y55000D02*
X99400Y54600D01*
X99900Y54400D01*
X100400Y54300D01*
X100900Y54400D01*
X101300Y54600D01*
X101600Y55000D01*
X101700Y55300D01*
X101600Y55800D01*
X101200Y56000D01*
X100800Y56200D01*
X100200D01*
G01X100800D02*
X101100Y56300D01*
X101400Y56600D01*
X101500Y57000D01*
X101400Y57300D01*
X101100Y57600D01*
X100600Y57800D01*
X100100Y57700D01*
X99500Y57500D01*
G01X103200Y57800D02*
X104600Y54300D01*
X106100Y57800D01*
G01X107700Y55000D02*
X108000Y54600D01*
X108500Y54400D01*
X109000Y54300D01*
X109500Y54400D01*
X109900Y54600D01*
X110200Y55000D01*
X110300Y55300D01*
X110200Y55800D01*
X109800Y56000D01*
X109400Y56200D01*
X108800D01*
G01X109400D02*
X109700Y56300D01*
X110000Y56600D01*
X110100Y57000D01*
X110000Y57300D01*
X109700Y57600D01*
X109200Y57800D01*
X108700Y57700D01*
X108100Y57500D01*
G01X101100Y67000D02*
X102300D01*
Y66000D01*
X101900Y65600D01*
X101500Y65400D01*
X100900Y65300D01*
X100300Y65400D01*
X99900Y65600D01*
X99600Y66000D01*
X99300Y66400D01*
X99200Y66900D01*
Y67300D01*
X99300Y67600D01*
X99600Y68000D01*
X99900Y68400D01*
X100300Y68600D01*
X100700Y68800D01*
X101200D01*
X101600Y68700D01*
X102000Y68400D01*
G01X103700Y65300D02*
Y68800D01*
X106400Y65300D01*
Y68800D01*
G01X108100Y65300D02*
Y68800D01*
X109200D01*
X109700Y68600D01*
X110100Y68400D01*
X110300Y68000D01*
X110600Y67600D01*
Y67000D01*
Y66500D01*
X110300Y66100D01*
X110100Y65700D01*
X109700Y65500D01*
X109200Y65300D01*
X108100D01*
G01X97700Y108000D02*
X97400Y108200D01*
X97000Y108300D01*
X96500D01*
X96000Y108100D01*
X95600Y107800D01*
X95300Y107500D01*
X95000Y106900D01*
Y106400D01*
X95100Y105800D01*
X95300Y105500D01*
X95600Y105100D01*
X96000Y104900D01*
X96400Y104800D01*
X96900D01*
X97300Y104900D01*
X97600Y105100D01*
X97900Y105300D01*
G01X99600Y106300D02*
X100000Y106700D01*
X100400Y106900D01*
X100900Y107000D01*
X101300Y106900D01*
X101600Y106700D01*
X101800Y106300D01*
X101900Y105900D01*
X101800Y105600D01*
X101600Y105200D01*
X101200Y104900D01*
X100800Y104800D01*
X100300Y104900D01*
X99900Y105300D01*
X99700Y105800D01*
X99600Y106400D01*
X99800Y107100D01*
X99900Y107500D01*
X100200Y107900D01*
X100600Y108200D01*
X101000Y108300D01*
X101500Y108200D01*
X101700Y107900D01*
G01X105000Y108300D02*
X104600Y108200D01*
X104200Y107900D01*
X104000Y107500D01*
X103800Y107100D01*
Y106500D01*
Y106000D01*
X104000Y105600D01*
X104200Y105200D01*
X104600Y104900D01*
X105000Y104800D01*
X105500Y104900D01*
X105900Y105200D01*
X106100Y105600D01*
X106300Y106000D01*
Y106500D01*
Y107100D01*
X106100Y107500D01*
X105900Y107900D01*
X105500Y108200D01*
X105000Y108300D01*
G01X101600Y156400D02*
X101300Y156600D01*
X100900Y156700D01*
X100400D01*
X99900Y156500D01*
X99500Y156200D01*
X99200Y155900D01*
X98900Y155300D01*
Y154800D01*
X99000Y154200D01*
X99200Y153900D01*
X99500Y153500D01*
X99900Y153300D01*
X100300Y153200D01*
X100800D01*
X101200Y153300D01*
X101500Y153500D01*
X101800Y153700D01*
G01X103400D02*
X103700Y153400D01*
X104100Y153300D01*
X104600Y153200D01*
X105200Y153300D01*
X105600Y153500D01*
X105900Y154000D01*
Y154400D01*
X105800Y154900D01*
X105500Y155200D01*
X105100Y155400D01*
X104700Y155500D01*
X104300Y155400D01*
X103800Y155200D01*
X103900Y156700D01*
X105500D01*
G01X108900Y153200D02*
X109400Y153300D01*
X109800Y153400D01*
X110100Y153700D01*
X110200Y154100D01*
X110100Y154500D01*
X109800Y154900D01*
X109200Y155100D01*
X108700D01*
X108300Y155200D01*
X108000Y155500D01*
X107900Y155900D01*
X108100Y156300D01*
X108500Y156600D01*
X108900Y156700D01*
X109400Y156600D01*
X109800Y156300D01*
X110000Y155900D01*
X109900Y155500D01*
X109600Y155200D01*
X109200Y155100D01*
X108700D01*
X108100Y154900D01*
X107800Y154500D01*
X107700Y154100D01*
X107800Y153700D01*
X108100Y153400D01*
X108500Y153300D01*
X108900Y153200D01*
G01X115700Y49400D02*
Y51000D01*
X114600Y52900D01*
G01X116900D02*
X115700Y51000D01*
G01X120000Y49400D02*
Y52900D01*
X119300Y52200D01*
G01Y49400D02*
X120700D01*
G01X113500Y63400D02*
Y59900D01*
X115800D01*
G01X118000Y60300D02*
X118400Y60000D01*
X118800Y59900D01*
X119300Y60000D01*
X119700Y60400D01*
X120000Y60900D01*
X120100Y61400D01*
Y62100D01*
X120000Y62600D01*
X119700Y63000D01*
X119400Y63300D01*
X118900Y63400D01*
X118500Y63300D01*
X118100Y63000D01*
X117900Y62700D01*
X117800Y62200D01*
X117900Y61800D01*
X118200Y61400D01*
X118500Y61200D01*
X118900Y61100D01*
X119400Y61200D01*
X119800Y61500D01*
X120100Y62100D01*
G01X113400Y104600D02*
X113100Y104800D01*
X112700Y104900D01*
X112200D01*
X111700Y104700D01*
X111300Y104400D01*
X111000Y104100D01*
X110700Y103500D01*
Y103000D01*
X110800Y102400D01*
X111000Y102100D01*
X111300Y101700D01*
X111700Y101500D01*
X112100Y101400D01*
X112600D01*
X113000Y101500D01*
X113300Y101700D01*
X113600Y101900D01*
G01X116400Y101400D02*
X116900Y101500D01*
X117300Y101600D01*
X117600Y101900D01*
X117700Y102300D01*
X117600Y102700D01*
X117300Y103100D01*
X116700Y103300D01*
X116200D01*
X115800Y103400D01*
X115500Y103700D01*
X115400Y104100D01*
X115600Y104500D01*
X116000Y104800D01*
X116400Y104900D01*
X116900Y104800D01*
X117300Y104500D01*
X117500Y104100D01*
X117400Y103700D01*
X117100Y103400D01*
X116700Y103300D01*
X116200D01*
X115600Y103100D01*
X115300Y102700D01*
X115200Y102300D01*
X115300Y101900D01*
X115600Y101600D01*
X116000Y101500D01*
X116400Y101400D01*
G01X122400Y104700D02*
X122100Y104900D01*
X121700Y105000D01*
X121200D01*
X120700Y104800D01*
X120300Y104500D01*
X120000Y104200D01*
X119700Y103600D01*
Y103100D01*
X119800Y102500D01*
X120000Y102200D01*
X120300Y101800D01*
X120700Y101600D01*
X121100Y101500D01*
X121600D01*
X122000Y101600D01*
X122300Y101800D01*
X122600Y102000D01*
G01X124200Y102200D02*
X124500Y101800D01*
X125000Y101600D01*
X125500Y101500D01*
X126000Y101600D01*
X126400Y101800D01*
X126700Y102200D01*
X126800Y102500D01*
X126700Y103000D01*
X126300Y103200D01*
X125900Y103400D01*
X125300D01*
G01X125900D02*
X126200Y103500D01*
X126500Y103800D01*
X126600Y104200D01*
X126500Y104500D01*
X126200Y104800D01*
X125700Y105000D01*
X125200Y104900D01*
X124600Y104700D01*
G01X128600Y104400D02*
X129000Y104800D01*
X129400Y104900D01*
X129900Y105000D01*
X130500Y104900D01*
X130900Y104600D01*
X131000Y104200D01*
X130900Y103900D01*
X130700Y103600D01*
X129500Y103000D01*
X129000Y102600D01*
X128600Y102000D01*
X128500Y101500D01*
X131000D01*
G01X116300Y151500D02*
X116000Y151700D01*
X115600Y151800D01*
X115100D01*
X114600Y151600D01*
X114200Y151300D01*
X113900Y151000D01*
X113600Y150400D01*
Y149900D01*
X113700Y149300D01*
X113900Y149000D01*
X114200Y148600D01*
X114600Y148400D01*
X115000Y148300D01*
X115500D01*
X115900Y148400D01*
X116200Y148600D01*
X116500Y148800D01*
G01X118100Y149000D02*
X118400Y148600D01*
X118900Y148400D01*
X119400Y148300D01*
X119900Y148400D01*
X120300Y148600D01*
X120600Y149000D01*
X120700Y149300D01*
X120600Y149800D01*
X120200Y150000D01*
X119800Y150200D01*
X119200D01*
G01X119800D02*
X120100Y150300D01*
X120400Y150600D01*
X120500Y151000D01*
X120400Y151300D01*
X120100Y151600D01*
X119600Y151800D01*
X119100Y151700D01*
X118500Y151500D01*
G01X123600Y148300D02*
Y151800D01*
X122900Y151100D01*
G01Y148300D02*
X124300D01*
G01X127300Y29600D02*
X127000Y29800D01*
X126600Y29900D01*
X126100D01*
X125600Y29700D01*
X125200Y29400D01*
X124900Y29100D01*
X124600Y28500D01*
Y28000D01*
X124700Y27400D01*
X124900Y27100D01*
X125200Y26700D01*
X125600Y26500D01*
X126000Y26400D01*
X126500D01*
X126900Y26500D01*
X127200Y26700D01*
X127500Y26900D01*
G01X129200Y27900D02*
X129600Y28300D01*
X130000Y28500D01*
X130500Y28600D01*
X130900Y28500D01*
X131200Y28300D01*
X131400Y27900D01*
X131500Y27500D01*
X131400Y27200D01*
X131200Y26800D01*
X130800Y26500D01*
X130400Y26400D01*
X129900Y26500D01*
X129500Y26900D01*
X129300Y27400D01*
X129200Y28000D01*
X129400Y28700D01*
X129500Y29100D01*
X129800Y29500D01*
X130200Y29800D01*
X130600Y29900D01*
X131100Y29800D01*
X131300Y29500D01*
G01X133700Y26800D02*
X134100Y26500D01*
X134500Y26400D01*
X135000Y26500D01*
X135400Y26900D01*
X135700Y27400D01*
X135800Y27900D01*
Y28600D01*
X135700Y29100D01*
X135400Y29500D01*
X135100Y29800D01*
X134600Y29900D01*
X134200Y29800D01*
X133800Y29500D01*
X133600Y29200D01*
X133500Y28700D01*
X133600Y28300D01*
X133900Y27900D01*
X134200Y27700D01*
X134600Y27600D01*
X135100Y27700D01*
X135500Y28000D01*
X135800Y28600D01*
G01X123600Y77700D02*
X123300Y77900D01*
X122900Y78000D01*
X122400D01*
X121900Y77800D01*
X121500Y77500D01*
X121200Y77200D01*
X120900Y76600D01*
Y76100D01*
X121000Y75500D01*
X121200Y75200D01*
X121500Y74800D01*
X121900Y74600D01*
X122300Y74500D01*
X122800D01*
X123200Y74600D01*
X123500Y74800D01*
X123800Y75000D01*
G01X127400Y74500D02*
Y78000D01*
X125200Y75500D01*
X128100D01*
G01X129700Y75000D02*
X130000Y74700D01*
X130400Y74600D01*
X130900Y74500D01*
X131500Y74600D01*
X131900Y74800D01*
X132200Y75300D01*
Y75700D01*
X132100Y76200D01*
X131800Y76500D01*
X131400Y76700D01*
X131000Y76800D01*
X130600Y76700D01*
X130100Y76500D01*
X130200Y78000D01*
X131800D01*
G01X136800Y84300D02*
X136500Y84500D01*
X136100Y84600D01*
X135600D01*
X135100Y84400D01*
X134700Y84100D01*
X134400Y83800D01*
X134100Y83200D01*
Y82700D01*
X134200Y82100D01*
X134400Y81800D01*
X134700Y81400D01*
X135100Y81200D01*
X135500Y81100D01*
X136000D01*
X136400Y81200D01*
X136700Y81400D01*
X137000Y81600D01*
G01X140600Y81100D02*
Y84600D01*
X138400Y82100D01*
X141300D01*
G01X144900Y81100D02*
Y84600D01*
X142700Y82100D01*
X145600D01*
G01X129600Y151200D02*
X129300Y151400D01*
X128900Y151500D01*
X128400D01*
X127900Y151300D01*
X127500Y151000D01*
X127200Y150700D01*
X126900Y150100D01*
Y149600D01*
X127000Y149000D01*
X127200Y148700D01*
X127500Y148300D01*
X127900Y148100D01*
X128300Y148000D01*
X128800D01*
X129200Y148100D01*
X129500Y148300D01*
X129800Y148500D01*
G01X131400D02*
X131700Y148200D01*
X132100Y148100D01*
X132600Y148000D01*
X133200Y148100D01*
X133600Y148300D01*
X133900Y148800D01*
Y149200D01*
X133800Y149700D01*
X133500Y150000D01*
X133100Y150200D01*
X132700Y150300D01*
X132300Y150200D01*
X131800Y150000D01*
X131900Y151500D01*
X133500D01*
G01X132500Y216000D02*
Y219500D01*
X133900D01*
X134400Y219300D01*
X134700Y219100D01*
X134800Y218600D01*
X134700Y218200D01*
X134400Y217900D01*
X133900Y217700D01*
X132500D01*
G01X133900D02*
X134800Y216000D01*
G01X138700D02*
Y219500D01*
X136500Y217000D01*
X139400D01*
G01X141300Y216400D02*
X141700Y216100D01*
X142100Y216000D01*
X142600Y216100D01*
X143000Y216500D01*
X143300Y217000D01*
X143400Y217500D01*
Y218200D01*
X143300Y218700D01*
X143000Y219100D01*
X142700Y219400D01*
X142200Y219500D01*
X141800Y219400D01*
X141400Y219100D01*
X141200Y218800D01*
X141100Y218300D01*
X141200Y217900D01*
X141500Y217500D01*
X141800Y217300D01*
X142200Y217200D01*
X142700Y217300D01*
X143100Y217600D01*
X143400Y218200D01*
G01X134100Y272400D02*
X134400Y272000D01*
X134700Y271800D01*
X135100Y271700D01*
X135600Y271800D01*
X136000Y272000D01*
X136300Y272400D01*
X136400Y272900D01*
Y275200D01*
G01X138400Y274600D02*
X138800Y275000D01*
X139200Y275100D01*
X139700Y275200D01*
X140300Y275100D01*
X140700Y274800D01*
X140800Y274400D01*
X140700Y274100D01*
X140500Y273800D01*
X139300Y273200D01*
X138800Y272800D01*
X138400Y272200D01*
X138300Y271700D01*
X140800D01*
G01X143800Y275200D02*
X143400Y275100D01*
X143000Y274800D01*
X142800Y274400D01*
X142600Y274000D01*
Y273400D01*
Y272900D01*
X142800Y272500D01*
X143000Y272100D01*
X143400Y271800D01*
X143800Y271700D01*
X144300Y271800D01*
X144700Y272100D01*
X144900Y272500D01*
X145100Y272900D01*
Y273400D01*
Y274000D01*
X144900Y274400D01*
X144700Y274800D01*
X144300Y275100D01*
X143800Y275200D01*
G01X134600Y306800D02*
Y310300D01*
X136000D01*
X136500Y310100D01*
X136800Y309900D01*
X136900Y309400D01*
X136800Y309000D01*
X136500Y308700D01*
X136000Y308500D01*
X134600D01*
G01X136000D02*
X136900Y306800D01*
G01X138800Y307300D02*
X139100Y307000D01*
X139500Y306900D01*
X140000Y306800D01*
X140600Y306900D01*
X141000Y307100D01*
X141300Y307600D01*
Y308000D01*
X141200Y308500D01*
X140900Y308800D01*
X140500Y309000D01*
X140100Y309100D01*
X139700Y309000D01*
X139200Y308800D01*
X139300Y310300D01*
X140900D01*
G01X144300Y306800D02*
Y310300D01*
X143600Y309600D01*
G01Y306800D02*
X145000D01*
G01X133800Y362400D02*
X134100Y362000D01*
X134400Y361800D01*
X134800Y361700D01*
X135300Y361800D01*
X135700Y362000D01*
X136000Y362400D01*
X136100Y362900D01*
Y365200D01*
G01X138100Y364600D02*
X138500Y365000D01*
X138900Y365100D01*
X139400Y365200D01*
X140000Y365100D01*
X140400Y364800D01*
X140500Y364400D01*
X140400Y364100D01*
X140200Y363800D01*
X139000Y363200D01*
X138500Y362800D01*
X138100Y362200D01*
X138000Y361700D01*
X140500D01*
G01X143500D02*
Y365200D01*
X142800Y364500D01*
G01Y361700D02*
X144200D01*
G01X150200Y36600D02*
Y34100D01*
X150400Y33600D01*
X150900Y33200D01*
X151400Y33100D01*
X152000Y33200D01*
X152500Y33600D01*
X152700Y34100D01*
Y36600D01*
G01X154600Y36000D02*
X155000Y36400D01*
X155400Y36500D01*
X155900Y36600D01*
X156500Y36500D01*
X156900Y36200D01*
X157000Y35800D01*
X156900Y35500D01*
X156700Y35200D01*
X155500Y34600D01*
X155000Y34200D01*
X154600Y33600D01*
X154500Y33100D01*
X157000D01*
G01X158900Y34600D02*
X159300Y35000D01*
X159700Y35200D01*
X160200Y35300D01*
X160600Y35200D01*
X160900Y35000D01*
X161100Y34600D01*
X161200Y34200D01*
X161100Y33900D01*
X160900Y33500D01*
X160500Y33200D01*
X160100Y33100D01*
X159600Y33200D01*
X159200Y33600D01*
X159000Y34100D01*
X158900Y34700D01*
X159100Y35400D01*
X159200Y35800D01*
X159500Y36200D01*
X159900Y36500D01*
X160300Y36600D01*
X160800Y36500D01*
X161000Y36200D01*
G01X136900Y105600D02*
Y103100D01*
X137100Y102600D01*
X137600Y102200D01*
X138100Y102100D01*
X138700Y102200D01*
X139200Y102600D01*
X139400Y103100D01*
Y105600D01*
G01X143200Y102100D02*
Y105600D01*
X141000Y103100D01*
X143900D01*
G01X144700Y129900D02*
Y126400D01*
G01X143400Y129900D02*
X146100D01*
G01X147900Y126400D02*
Y129900D01*
X149300D01*
X149800Y129700D01*
X150100Y129300D01*
X150200Y128900D01*
X150100Y128400D01*
X149800Y128000D01*
X149300Y127900D01*
X147900D01*
G01X152100Y127100D02*
X152400Y126700D01*
X152900Y126500D01*
X153400Y126400D01*
X153900Y126500D01*
X154300Y126700D01*
X154600Y127100D01*
X154700Y127400D01*
X154600Y127900D01*
X154200Y128100D01*
X153800Y128300D01*
X153200D01*
G01X153800D02*
X154100Y128400D01*
X154400Y128700D01*
X154500Y129100D01*
X154400Y129400D01*
X154100Y129700D01*
X153600Y129900D01*
X153100Y129800D01*
X152500Y129600D01*
G01X156200Y129900D02*
X157600Y126400D01*
X159100Y129900D01*
G01X160700Y127100D02*
X161000Y126700D01*
X161500Y126500D01*
X162000Y126400D01*
X162500Y126500D01*
X162900Y126700D01*
X163200Y127100D01*
X163300Y127400D01*
X163200Y127900D01*
X162800Y128100D01*
X162400Y128300D01*
X161800D01*
G01X162400D02*
X162700Y128400D01*
X163000Y128700D01*
X163100Y129100D01*
X163000Y129400D01*
X162700Y129700D01*
X162200Y129900D01*
X161700Y129800D01*
X161100Y129600D01*
G01X141300Y153700D02*
Y151200D01*
X141500Y150700D01*
X142000Y150300D01*
X142500Y150200D01*
X143100Y150300D01*
X143600Y150700D01*
X143800Y151200D01*
Y153700D01*
G01X145700Y153100D02*
X146100Y153500D01*
X146500Y153600D01*
X147000Y153700D01*
X147600Y153600D01*
X148000Y153300D01*
X148100Y152900D01*
X148000Y152600D01*
X147800Y152300D01*
X146600Y151700D01*
X146100Y151300D01*
X145700Y150700D01*
X145600Y150200D01*
X148100D01*
G01X154500Y287500D02*
X152000D01*
X151500Y287300D01*
X151100Y286800D01*
X151000Y286300D01*
X151100Y285700D01*
X151500Y285200D01*
X152000Y285000D01*
X154500D01*
G01X151700Y283200D02*
X151300Y282900D01*
X151100Y282400D01*
X151000Y281900D01*
X151100Y281400D01*
X151300Y281000D01*
X151700Y280700D01*
X152000Y280600D01*
X152500Y280700D01*
X152700Y281100D01*
X152900Y281500D01*
Y282100D01*
G01Y281500D02*
X153000Y281200D01*
X153300Y280900D01*
X153700Y280800D01*
X154000Y280900D01*
X154300Y281200D01*
X154500Y281700D01*
X154400Y282200D01*
X154200Y282800D01*
G01X151000Y277700D02*
X154500D01*
X153800Y278400D01*
G01X151000D02*
Y277000D01*
G01X154500Y377500D02*
X152000D01*
X151500Y377300D01*
X151100Y376800D01*
X151000Y376300D01*
X151100Y375700D01*
X151500Y375200D01*
X152000Y375000D01*
X154500D01*
G01X151700Y373200D02*
X151300Y372900D01*
X151100Y372400D01*
X151000Y371900D01*
X151100Y371400D01*
X151300Y371000D01*
X151700Y370700D01*
X152000Y370600D01*
X152500Y370700D01*
X152700Y371100D01*
X152900Y371500D01*
Y372100D01*
G01Y371500D02*
X153000Y371200D01*
X153300Y370900D01*
X153700Y370800D01*
X154000Y370900D01*
X154300Y371200D01*
X154500Y371700D01*
X154400Y372200D01*
X154200Y372800D01*
G01X153900Y368800D02*
X154300Y368400D01*
X154400Y368000D01*
X154500Y367500D01*
X154400Y366900D01*
X154100Y366500D01*
X153700Y366400D01*
X153400Y366500D01*
X153100Y366700D01*
X152500Y367900D01*
X152100Y368400D01*
X151500Y368800D01*
X151000Y368900D01*
Y366400D01*
G01X154300Y78300D02*
X156800Y81800D01*
G01X154300D02*
X156800Y78300D01*
G01X158700Y81200D02*
X159100Y81600D01*
X159500Y81700D01*
X160000Y81800D01*
X160600Y81700D01*
X161000Y81400D01*
X161100Y81000D01*
X161000Y80700D01*
X160800Y80400D01*
X159600Y79800D01*
X159100Y79400D01*
X158700Y78800D01*
X158600Y78300D01*
X161100D01*
G01X153700Y106500D02*
X153400Y106700D01*
X153000Y106800D01*
X152500D01*
X152000Y106600D01*
X151600Y106300D01*
X151300Y106000D01*
X151000Y105400D01*
Y104900D01*
X151100Y104300D01*
X151300Y104000D01*
X151600Y103600D01*
X152000Y103400D01*
X152400Y103300D01*
X152900D01*
X153300Y103400D01*
X153600Y103600D01*
X153900Y103800D01*
G01X155500Y104000D02*
X155800Y103600D01*
X156300Y103400D01*
X156800Y103300D01*
X157300Y103400D01*
X157700Y103600D01*
X158000Y104000D01*
X158100Y104300D01*
X158000Y104800D01*
X157600Y105000D01*
X157200Y105200D01*
X156600D01*
G01X157200D02*
X157500Y105300D01*
X157800Y105600D01*
X157900Y106000D01*
X157800Y106300D01*
X157500Y106600D01*
X157000Y106800D01*
X156500Y106700D01*
X155900Y106500D01*
G01X161000Y106800D02*
X160600Y106700D01*
X160200Y106400D01*
X160000Y106000D01*
X159800Y105600D01*
Y105000D01*
Y104500D01*
X160000Y104100D01*
X160200Y103700D01*
X160600Y103400D01*
X161000Y103300D01*
X161500Y103400D01*
X161900Y103700D01*
X162100Y104100D01*
X162300Y104500D01*
Y105000D01*
Y105600D01*
X162100Y106000D01*
X161900Y106400D01*
X161500Y106700D01*
X161000Y106800D01*
G01X157800Y122300D02*
Y118800D01*
G01X156500Y122300D02*
X159200D01*
G01X161000Y118800D02*
Y122300D01*
X162400D01*
X162900Y122100D01*
X163200Y121700D01*
X163300Y121300D01*
X163200Y120800D01*
X162900Y120400D01*
X162400Y120300D01*
X161000D01*
G01X166900Y120700D02*
X167200Y120800D01*
X167300Y121100D01*
X167400Y121500D01*
X167300Y121900D01*
X167100Y122100D01*
X166700Y122300D01*
X165100D01*
Y118800D01*
X167000D01*
X167400Y119000D01*
X167700Y119400D01*
X167800Y119800D01*
X167700Y120200D01*
X167300Y120500D01*
X166900Y120700D01*
X165100D01*
G01X169600Y122300D02*
Y118800D01*
X171900D01*
G01X176200D02*
X173900D01*
Y122300D01*
X176200D01*
G01X175300Y120600D02*
X173900D01*
G01X163800Y157000D02*
X163500Y157200D01*
X163100Y157300D01*
X162600D01*
X162100Y157100D01*
X161700Y156800D01*
X161400Y156500D01*
X161100Y155900D01*
Y155400D01*
X161200Y154800D01*
X161400Y154500D01*
X161700Y154100D01*
X162100Y153900D01*
X162500Y153800D01*
X163000D01*
X163400Y153900D01*
X163700Y154100D01*
X164000Y154300D01*
G01X165700Y155300D02*
X166100Y155700D01*
X166500Y155900D01*
X167000Y156000D01*
X167400Y155900D01*
X167700Y155700D01*
X167900Y155300D01*
X168000Y154900D01*
X167900Y154600D01*
X167700Y154200D01*
X167300Y153900D01*
X166900Y153800D01*
X166400Y153900D01*
X166000Y154300D01*
X165800Y154800D01*
X165700Y155400D01*
X165900Y156100D01*
X166000Y156500D01*
X166300Y156900D01*
X166700Y157200D01*
X167100Y157300D01*
X167600Y157200D01*
X167800Y156900D01*
G01X170000Y156700D02*
X170400Y157100D01*
X170800Y157200D01*
X171300Y157300D01*
X171900Y157200D01*
X172300Y156900D01*
X172400Y156500D01*
X172300Y156200D01*
X172100Y155900D01*
X170900Y155300D01*
X170400Y154900D01*
X170000Y154300D01*
X169900Y153800D01*
X172400D01*
G01X179100Y16700D02*
Y17900D01*
X180100D01*
X180500Y17500D01*
X180700Y17100D01*
X180800Y16500D01*
X180700Y15900D01*
X180500Y15500D01*
X180100Y15200D01*
X179700Y14900D01*
X179200Y14800D01*
X178800D01*
X178500Y14900D01*
X178100Y15200D01*
X177700Y15500D01*
X177500Y15900D01*
X177300Y16300D01*
Y16800D01*
X177400Y17200D01*
X177700Y17600D01*
G01X180800Y19300D02*
X177300D01*
X180800Y22000D01*
X177300D01*
G01X180800Y23700D02*
X177300D01*
Y24800D01*
X177500Y25300D01*
X177700Y25700D01*
X178100Y25900D01*
X178500Y26200D01*
X179100D01*
X179600D01*
X180000Y25900D01*
X180400Y25700D01*
X180600Y25300D01*
X180800Y24800D01*
Y23700D01*
G01X179700Y73400D02*
Y70900D01*
X179900Y70400D01*
X180400Y70000D01*
X180900Y69900D01*
X181500Y70000D01*
X182000Y70400D01*
X182200Y70900D01*
Y73400D01*
G01X185200Y69900D02*
Y73400D01*
X184500Y72700D01*
G01Y69900D02*
X185900D01*
G01X189500D02*
X190000Y70000D01*
X190400Y70100D01*
X190700Y70400D01*
X190800Y70800D01*
X190700Y71200D01*
X190400Y71600D01*
X189800Y71800D01*
X189300D01*
X188900Y71900D01*
X188600Y72200D01*
X188500Y72600D01*
X188700Y73000D01*
X189100Y73300D01*
X189500Y73400D01*
X190000Y73300D01*
X190400Y73000D01*
X190600Y72600D01*
X190500Y72200D01*
X190200Y71900D01*
X189800Y71800D01*
X189300D01*
X188700Y71600D01*
X188400Y71200D01*
X188300Y70800D01*
X188400Y70400D01*
X188700Y70100D01*
X189100Y70000D01*
X189500Y69900D01*
G01X172100Y106700D02*
X171800Y106900D01*
X171400Y107000D01*
X170900D01*
X170400Y106800D01*
X170000Y106500D01*
X169700Y106200D01*
X169400Y105600D01*
Y105100D01*
X169500Y104500D01*
X169700Y104200D01*
X170000Y103800D01*
X170400Y103600D01*
X170800Y103500D01*
X171300D01*
X171700Y103600D01*
X172000Y103800D01*
X172300Y104000D01*
G01X174200Y103900D02*
X174600Y103600D01*
X175000Y103500D01*
X175500Y103600D01*
X175900Y104000D01*
X176200Y104500D01*
X176300Y105000D01*
Y105700D01*
X176200Y106200D01*
X175900Y106600D01*
X175600Y106900D01*
X175100Y107000D01*
X174700Y106900D01*
X174300Y106600D01*
X174100Y106300D01*
X174000Y105800D01*
X174100Y105400D01*
X174400Y105000D01*
X174700Y104800D01*
X175100Y104700D01*
X175600Y104800D01*
X176000Y105100D01*
X176300Y105700D01*
G01X181000Y153100D02*
X180700Y153300D01*
X180300Y153400D01*
X179800D01*
X179300Y153200D01*
X178900Y152900D01*
X178600Y152600D01*
X178300Y152000D01*
Y151500D01*
X178400Y150900D01*
X178600Y150600D01*
X178900Y150200D01*
X179300Y150000D01*
X179700Y149900D01*
X180200D01*
X180600Y150000D01*
X180900Y150200D01*
X181200Y150400D01*
G01X182900Y152800D02*
X183300Y153200D01*
X183700Y153300D01*
X184200Y153400D01*
X184800Y153300D01*
X185200Y153000D01*
X185300Y152600D01*
X185200Y152300D01*
X185000Y152000D01*
X183800Y151400D01*
X183300Y151000D01*
X182900Y150400D01*
X182800Y149900D01*
X185300D01*
G01X187400Y150300D02*
X187800Y150000D01*
X188200Y149900D01*
X188700Y150000D01*
X189100Y150400D01*
X189400Y150900D01*
X189500Y151400D01*
Y152100D01*
X189400Y152600D01*
X189100Y153000D01*
X188800Y153300D01*
X188300Y153400D01*
X187900Y153300D01*
X187500Y153000D01*
X187300Y152700D01*
X187200Y152200D01*
X187300Y151800D01*
X187600Y151400D01*
X187900Y151200D01*
X188300Y151100D01*
X188800Y151200D01*
X189200Y151500D01*
X189500Y152100D01*
G01X190500Y14900D02*
X190900Y15200D01*
X191100Y15700D01*
X191200Y16200D01*
X191100Y16700D01*
X190900Y17100D01*
X190500Y17400D01*
X190200Y17500D01*
X189700Y17400D01*
X189500Y17000D01*
X189300Y16600D01*
Y16000D01*
G01Y16600D02*
X189200Y16900D01*
X188900Y17200D01*
X188500Y17300D01*
X188200Y17200D01*
X187900Y16900D01*
X187700Y16400D01*
X187800Y15900D01*
X188000Y15300D01*
G01X187700Y19000D02*
X191200Y20400D01*
X187700Y21900D01*
G01X190500Y23500D02*
X190900Y23800D01*
X191100Y24300D01*
X191200Y24800D01*
X191100Y25300D01*
X190900Y25700D01*
X190500Y26000D01*
X190200Y26100D01*
X189700Y26000D01*
X189500Y25600D01*
X189300Y25200D01*
Y24600D01*
G01Y25200D02*
X189200Y25500D01*
X188900Y25800D01*
X188500Y25900D01*
X188200Y25800D01*
X187900Y25500D01*
X187700Y25000D01*
X187800Y24500D01*
X188000Y23900D01*
G01X197800Y153100D02*
X197500Y153300D01*
X197100Y153400D01*
X196600D01*
X196100Y153200D01*
X195700Y152900D01*
X195400Y152600D01*
X195100Y152000D01*
Y151500D01*
X195200Y150900D01*
X195400Y150600D01*
X195700Y150200D01*
X196100Y150000D01*
X196500Y149900D01*
X197000D01*
X197400Y150000D01*
X197700Y150200D01*
X198000Y150400D01*
G01X199700Y151400D02*
X200100Y151800D01*
X200500Y152000D01*
X201000Y152100D01*
X201400Y152000D01*
X201700Y151800D01*
X201900Y151400D01*
X202000Y151000D01*
X201900Y150700D01*
X201700Y150300D01*
X201300Y150000D01*
X200900Y149900D01*
X200400Y150000D01*
X200000Y150400D01*
X199800Y150900D01*
X199700Y151500D01*
X199900Y152200D01*
X200000Y152600D01*
X200300Y153000D01*
X200700Y153300D01*
X201100Y153400D01*
X201600Y153300D01*
X201800Y153000D01*
G01X200700Y15300D02*
X197200D01*
Y16400D01*
X197400Y16900D01*
X197600Y17300D01*
X198000Y17500D01*
X198400Y17800D01*
X199000D01*
X199500D01*
X199900Y17500D01*
X200300Y17300D01*
X200500Y16900D01*
X200700Y16400D01*
Y15300D01*
G01X197200Y20100D02*
Y21500D01*
G01Y20800D02*
X200700D01*
G01Y20100D02*
Y21500D01*
G01Y25100D02*
X200600Y24700D01*
X200400Y24300D01*
X200100Y23900D01*
X199700Y23700D01*
X199200Y23600D01*
X198700D01*
X198200Y23700D01*
X197800Y23900D01*
X197500Y24300D01*
X197300Y24700D01*
X197200Y25100D01*
X197300Y25600D01*
X197500Y26000D01*
X197800Y26400D01*
X198200Y26600D01*
X198700Y26700D01*
X199200D01*
X199700Y26600D01*
X200100Y26400D01*
X200400Y26000D01*
X200600Y25600D01*
X200700Y25100D01*
G01X206300Y17700D02*
X206100Y17400D01*
X206000Y17000D01*
Y16500D01*
X206200Y16000D01*
X206500Y15600D01*
X206800Y15300D01*
X207400Y15000D01*
X207900D01*
X208500Y15100D01*
X208800Y15300D01*
X209200Y15600D01*
X209400Y16000D01*
X209500Y16400D01*
Y16900D01*
X209400Y17300D01*
X209200Y17600D01*
X209000Y17900D01*
G01X206000Y19600D02*
X209500D01*
Y21900D01*
G01Y23800D02*
X206000D01*
G01Y26000D02*
X208200Y23800D01*
G01X209500Y26300D02*
X207200Y24800D01*
G01X211400Y92800D02*
Y89300D01*
G01X210100Y92800D02*
X212800D01*
G01X214600Y89300D02*
Y92800D01*
X216000D01*
X216500Y92600D01*
X216800Y92200D01*
X216900Y91800D01*
X216800Y91300D01*
X216500Y90900D01*
X216000Y90800D01*
X214600D01*
G01X218300Y88100D02*
X221800D01*
G01X222800Y89300D02*
Y92800D01*
X224300Y89900D01*
X225900Y92800D01*
Y89300D01*
G01X229900Y92500D02*
X229600Y92700D01*
X229200Y92800D01*
X228700D01*
X228200Y92600D01*
X227800Y92300D01*
X227500Y92000D01*
X227200Y91400D01*
Y90900D01*
X227300Y90300D01*
X227500Y90000D01*
X227800Y89600D01*
X228200Y89400D01*
X228600Y89300D01*
X229100D01*
X229500Y89400D01*
X229800Y89600D01*
X230100Y89800D01*
G01X231700Y92800D02*
Y90300D01*
X231900Y89800D01*
X232400Y89400D01*
X232900Y89300D01*
X233500Y89400D01*
X234000Y89800D01*
X234200Y90300D01*
Y92800D01*
G01X235500Y88100D02*
X239000D01*
G01X240400Y89300D02*
Y92800D01*
X241800D01*
X242300Y92600D01*
X242600Y92400D01*
X242700Y91900D01*
X242600Y91500D01*
X242300Y91200D01*
X241800Y91000D01*
X240400D01*
G01X241800D02*
X242700Y89300D01*
G01X244600D02*
X247100Y92800D01*
G01X244600D02*
X247100Y89300D01*
G01X211400Y102800D02*
Y99300D01*
G01X210100Y102800D02*
X212800D01*
G01X214600Y99300D02*
Y102800D01*
X216000D01*
X216500Y102600D01*
X216800Y102200D01*
X216900Y101800D01*
X216800Y101300D01*
X216500Y100900D01*
X216000Y100800D01*
X214600D01*
G01X218300Y98100D02*
X221800D01*
G01X222800Y99300D02*
Y102800D01*
X224300Y99900D01*
X225900Y102800D01*
Y99300D01*
G01X229900Y102500D02*
X229600Y102700D01*
X229200Y102800D01*
X228700D01*
X228200Y102600D01*
X227800Y102300D01*
X227500Y102000D01*
X227200Y101400D01*
Y100900D01*
X227300Y100300D01*
X227500Y100000D01*
X227800Y99600D01*
X228200Y99400D01*
X228600Y99300D01*
X229100D01*
X229500Y99400D01*
X229800Y99600D01*
X230100Y99800D01*
G01X231700Y102800D02*
Y100300D01*
X231900Y99800D01*
X232400Y99400D01*
X232900Y99300D01*
X233500Y99400D01*
X234000Y99800D01*
X234200Y100300D01*
Y102800D01*
G01X235500Y98100D02*
X239000D01*
G01X241500Y102800D02*
Y99300D01*
G01X240200Y102800D02*
X242900D01*
G01X244600Y99300D02*
X247100Y102800D01*
G01X244600D02*
X247100Y99300D01*
G01X211400Y112800D02*
Y109300D01*
G01X210100Y112800D02*
X212800D01*
G01X214600Y109300D02*
Y112800D01*
X216000D01*
X216500Y112600D01*
X216800Y112200D01*
X216900Y111800D01*
X216800Y111300D01*
X216500Y110900D01*
X216000Y110800D01*
X214600D01*
G01X220400Y111000D02*
X221600D01*
Y110000D01*
X221200Y109600D01*
X220800Y109400D01*
X220200Y109300D01*
X219600Y109400D01*
X219200Y109600D01*
X218900Y110000D01*
X218600Y110400D01*
X218500Y110900D01*
Y111300D01*
X218600Y111600D01*
X218900Y112000D01*
X219200Y112400D01*
X219600Y112600D01*
X220000Y112800D01*
X220500D01*
X220900Y112700D01*
X221300Y112400D01*
G01X223000Y109300D02*
Y112800D01*
X225700Y109300D01*
Y112800D01*
G01X227400Y109300D02*
Y112800D01*
X228500D01*
X229000Y112600D01*
X229400Y112400D01*
X229600Y112000D01*
X229900Y111600D01*
Y111000D01*
Y110500D01*
X229600Y110100D01*
X229400Y109700D01*
X229000Y109500D01*
X228500Y109300D01*
X227400D01*
G01X219800Y1800D02*
X220200Y2100D01*
X220400Y2400D01*
X220500Y2800D01*
X220400Y3300D01*
X220200Y3700D01*
X219800Y4000D01*
X219300Y4100D01*
X217000D01*
G01X217600Y6100D02*
X217200Y6500D01*
X217100Y6900D01*
X217000Y7400D01*
X217100Y8000D01*
X217400Y8400D01*
X217800Y8500D01*
X218100Y8400D01*
X218400Y8200D01*
X219000Y7000D01*
X219400Y6500D01*
X220000Y6100D01*
X220500Y6000D01*
Y8500D01*
G01X217600Y10400D02*
X217200Y10800D01*
X217100Y11200D01*
X217000Y11700D01*
X217100Y12300D01*
X217400Y12700D01*
X217800Y12800D01*
X218100Y12700D01*
X218400Y12500D01*
X219000Y11300D01*
X219400Y10800D01*
X220000Y10400D01*
X220500Y10300D01*
Y12800D01*
G01X224800Y31500D02*
Y35000D01*
X226200D01*
X226700Y34800D01*
X227000Y34600D01*
X227100Y34100D01*
X227000Y33700D01*
X226700Y33400D01*
X226200Y33200D01*
X224800D01*
G01X226200D02*
X227100Y31500D01*
G01X229100Y33000D02*
X229500Y33400D01*
X229900Y33600D01*
X230400Y33700D01*
X230800Y33600D01*
X231100Y33400D01*
X231300Y33000D01*
X231400Y32600D01*
X231300Y32300D01*
X231100Y31900D01*
X230700Y31600D01*
X230300Y31500D01*
X229800Y31600D01*
X229400Y32000D01*
X229200Y32500D01*
X229100Y33100D01*
X229300Y33800D01*
X229400Y34200D01*
X229700Y34600D01*
X230100Y34900D01*
X230500Y35000D01*
X231000Y34900D01*
X231200Y34600D01*
G01X234500Y31500D02*
Y35000D01*
X233800Y34300D01*
G01Y31500D02*
X235200D01*
G01X223300Y215300D02*
Y218800D01*
X224700D01*
X225200Y218600D01*
X225500Y218400D01*
X225600Y217900D01*
X225500Y217500D01*
X225200Y217200D01*
X224700Y217000D01*
X223300D01*
G01X224700D02*
X225600Y215300D01*
G01X229500D02*
Y218800D01*
X227300Y216300D01*
X230200D01*
G01X232900Y215300D02*
X233000Y216100D01*
X233200Y216700D01*
X233500Y217300D01*
X233800Y217900D01*
X234200Y218800D01*
X231900D01*
G01X223000Y272400D02*
X223300Y272000D01*
X223600Y271800D01*
X224000Y271700D01*
X224500Y271800D01*
X224900Y272000D01*
X225200Y272400D01*
X225300Y272900D01*
Y275200D01*
G01X228400Y271700D02*
Y275200D01*
X227700Y274500D01*
G01Y271700D02*
X229100D01*
G01X232700D02*
X233200Y271800D01*
X233600Y271900D01*
X233900Y272200D01*
X234000Y272600D01*
X233900Y273000D01*
X233600Y273400D01*
X233000Y273600D01*
X232500D01*
X232100Y273700D01*
X231800Y274000D01*
X231700Y274400D01*
X231900Y274800D01*
X232300Y275100D01*
X232700Y275200D01*
X233200Y275100D01*
X233600Y274800D01*
X233800Y274400D01*
X233700Y274000D01*
X233400Y273700D01*
X233000Y273600D01*
X232500D01*
X231900Y273400D01*
X231600Y273000D01*
X231500Y272600D01*
X231600Y272200D01*
X231900Y271900D01*
X232300Y271800D01*
X232700Y271700D01*
G01X222400Y306700D02*
Y310200D01*
X223800D01*
X224300Y310000D01*
X224600Y309800D01*
X224700Y309300D01*
X224600Y308900D01*
X224300Y308600D01*
X223800Y308400D01*
X222400D01*
G01X223800D02*
X224700Y306700D01*
G01X228600D02*
Y310200D01*
X226400Y307700D01*
X229300D01*
G01X230900Y307200D02*
X231200Y306900D01*
X231600Y306800D01*
X232100Y306700D01*
X232700Y306800D01*
X233100Y307000D01*
X233400Y307500D01*
Y307900D01*
X233300Y308400D01*
X233000Y308700D01*
X232600Y308900D01*
X232200Y309000D01*
X231800Y308900D01*
X231300Y308700D01*
X231400Y310200D01*
X233000D01*
G01X224100Y362000D02*
X224400Y361600D01*
X224700Y361400D01*
X225100Y361300D01*
X225600Y361400D01*
X226000Y361600D01*
X226300Y362000D01*
X226400Y362500D01*
Y364800D01*
G01X229500Y361300D02*
Y364800D01*
X228800Y364100D01*
G01Y361300D02*
X230200D01*
G01X232900Y361700D02*
X233300Y361400D01*
X233700Y361300D01*
X234200Y361400D01*
X234600Y361800D01*
X234900Y362300D01*
X235000Y362800D01*
Y363500D01*
X234900Y364000D01*
X234600Y364400D01*
X234300Y364700D01*
X233800Y364800D01*
X233400Y364700D01*
X233000Y364400D01*
X232800Y364100D01*
X232700Y363600D01*
X232800Y363200D01*
X233100Y362800D01*
X233400Y362600D01*
X233800Y362500D01*
X234300Y362600D01*
X234700Y362900D01*
X235000Y363500D01*
G01X238500Y4300D02*
X238800Y3900D01*
X239100Y3700D01*
X239500Y3600D01*
X240000Y3700D01*
X240400Y3900D01*
X240700Y4300D01*
X240800Y4800D01*
Y7100D01*
G01X242700Y4300D02*
X243000Y3900D01*
X243500Y3700D01*
X244000Y3600D01*
X244500Y3700D01*
X244900Y3900D01*
X245200Y4300D01*
X245300Y4600D01*
X245200Y5100D01*
X244800Y5300D01*
X244400Y5500D01*
X243800D01*
G01X244400D02*
X244700Y5600D01*
X245000Y5900D01*
X245100Y6300D01*
X245000Y6600D01*
X244700Y6900D01*
X244200Y7100D01*
X243700Y7000D01*
X243100Y6800D01*
G01X248200Y7100D02*
X247800Y7000D01*
X247400Y6700D01*
X247200Y6300D01*
X247000Y5900D01*
Y5300D01*
Y4800D01*
X247200Y4400D01*
X247400Y4000D01*
X247800Y3700D01*
X248200Y3600D01*
X248700Y3700D01*
X249100Y4000D01*
X249300Y4400D01*
X249500Y4800D01*
Y5300D01*
Y5900D01*
X249300Y6300D01*
X249100Y6700D01*
X248700Y7000D01*
X248200Y7100D01*
G01X244500Y287500D02*
X242000D01*
X241500Y287300D01*
X241100Y286800D01*
X241000Y286300D01*
X241100Y285700D01*
X241500Y285200D01*
X242000Y285000D01*
X244500D01*
G01X243900Y283100D02*
X244300Y282700D01*
X244400Y282300D01*
X244500Y281800D01*
X244400Y281200D01*
X244100Y280800D01*
X243700Y280700D01*
X243400Y280800D01*
X243100Y281000D01*
X242500Y282200D01*
X242100Y282700D01*
X241500Y283100D01*
X241000Y283200D01*
Y280700D01*
G01X241400Y278600D02*
X241100Y278200D01*
X241000Y277800D01*
X241100Y277300D01*
X241500Y276900D01*
X242000Y276600D01*
X242500Y276500D01*
X243200D01*
X243700Y276600D01*
X244100Y276900D01*
X244400Y277200D01*
X244500Y277700D01*
X244400Y278100D01*
X244100Y278500D01*
X243800Y278700D01*
X243300Y278800D01*
X242900Y278700D01*
X242500Y278400D01*
X242300Y278100D01*
X242200Y277700D01*
X242300Y277200D01*
X242600Y276800D01*
X243200Y276500D01*
G01X244500Y377500D02*
X242000D01*
X241500Y377300D01*
X241100Y376800D01*
X241000Y376300D01*
X241100Y375700D01*
X241500Y375200D01*
X242000Y375000D01*
X244500D01*
G01X241700Y373200D02*
X241300Y372900D01*
X241100Y372400D01*
X241000Y371900D01*
X241100Y371400D01*
X241300Y371000D01*
X241700Y370700D01*
X242000Y370600D01*
X242500Y370700D01*
X242700Y371100D01*
X242900Y371500D01*
Y372100D01*
G01Y371500D02*
X243000Y371200D01*
X243300Y370900D01*
X243700Y370800D01*
X244000Y370900D01*
X244300Y371200D01*
X244500Y371700D01*
X244400Y372200D01*
X244200Y372800D01*
G01X244500Y367700D02*
X244400Y368100D01*
X244100Y368500D01*
X243700Y368700D01*
X243300Y368900D01*
X242700D01*
X242200D01*
X241800Y368700D01*
X241400Y368500D01*
X241100Y368100D01*
X241000Y367700D01*
X241100Y367200D01*
X241400Y366800D01*
X241800Y366600D01*
X242200Y366400D01*
X242700D01*
X243300D01*
X243700Y366600D01*
X244100Y366800D01*
X244400Y367200D01*
X244500Y367700D01*
G01X254000Y71200D02*
X253700Y71400D01*
X253300Y71500D01*
X252800D01*
X252300Y71300D01*
X251900Y71000D01*
X251600Y70700D01*
X251300Y70100D01*
Y69600D01*
X251400Y69000D01*
X251600Y68700D01*
X251900Y68300D01*
X252300Y68100D01*
X252700Y68000D01*
X253200D01*
X253600Y68100D01*
X253900Y68300D01*
X254200Y68500D01*
G01X257000Y68000D02*
Y71500D01*
X256300Y70800D01*
G01Y68000D02*
X257700D01*
G01X261200D02*
X261300Y68800D01*
X261500Y69400D01*
X261800Y70000D01*
X262100Y70600D01*
X262500Y71500D01*
X260200D01*
G01X249100Y76700D02*
Y80200D01*
X250500D01*
X251000Y80000D01*
X251300Y79800D01*
X251400Y79300D01*
X251300Y78900D01*
X251000Y78600D01*
X250500Y78400D01*
X249100D01*
G01X250500D02*
X251400Y76700D01*
G01X253300Y77200D02*
X253600Y76900D01*
X254000Y76800D01*
X254500Y76700D01*
X255100Y76800D01*
X255500Y77000D01*
X255800Y77500D01*
Y77900D01*
X255700Y78400D01*
X255400Y78700D01*
X255000Y78900D01*
X254600Y79000D01*
X254200Y78900D01*
X253700Y78700D01*
X253800Y80200D01*
X255400D01*
G01X258700Y76700D02*
X258800Y77500D01*
X259000Y78100D01*
X259300Y78700D01*
X259600Y79300D01*
X260000Y80200D01*
X257700D01*
G01X270300Y4100D02*
X270600Y3700D01*
X270900Y3500D01*
X271300Y3400D01*
X271800Y3500D01*
X272200Y3700D01*
X272500Y4100D01*
X272600Y4600D01*
Y6900D01*
G01X274500Y4100D02*
X274800Y3700D01*
X275300Y3500D01*
X275800Y3400D01*
X276300Y3500D01*
X276700Y3700D01*
X277000Y4100D01*
X277100Y4400D01*
X277000Y4900D01*
X276600Y5100D01*
X276200Y5300D01*
X275600D01*
G01X276200D02*
X276500Y5400D01*
X276800Y5700D01*
X276900Y6100D01*
X276800Y6400D01*
X276500Y6700D01*
X276000Y6900D01*
X275500Y6800D01*
X274900Y6600D01*
G01X280000Y3400D02*
Y6900D01*
X279300Y6200D01*
G01Y3400D02*
X280700D01*
G01X256900Y30700D02*
Y34200D01*
X258300D01*
X258800Y34000D01*
X259100Y33800D01*
X259200Y33300D01*
X259100Y32900D01*
X258800Y32600D01*
X258300Y32400D01*
X256900D01*
G01X258300D02*
X259200Y30700D01*
G01X261200Y32200D02*
X261600Y32600D01*
X262000Y32800D01*
X262500Y32900D01*
X262900Y32800D01*
X263200Y32600D01*
X263400Y32200D01*
X263500Y31800D01*
X263400Y31500D01*
X263200Y31100D01*
X262800Y30800D01*
X262400Y30700D01*
X261900Y30800D01*
X261500Y31200D01*
X261300Y31700D01*
X261200Y32300D01*
X261400Y33000D01*
X261500Y33400D01*
X261800Y33800D01*
X262200Y34100D01*
X262600Y34200D01*
X263100Y34100D01*
X263300Y33800D01*
G01X265500Y33600D02*
X265900Y34000D01*
X266300Y34100D01*
X266800Y34200D01*
X267400Y34100D01*
X267800Y33800D01*
X267900Y33400D01*
X267800Y33100D01*
X267600Y32800D01*
X266400Y32200D01*
X265900Y31800D01*
X265500Y31200D01*
X265400Y30700D01*
X267900D01*
G01X261500Y48900D02*
X261200Y49100D01*
X260800Y49200D01*
X260300D01*
X259800Y49000D01*
X259400Y48700D01*
X259100Y48400D01*
X258800Y47800D01*
Y47300D01*
X258900Y46700D01*
X259100Y46400D01*
X259400Y46000D01*
X259800Y45800D01*
X260200Y45700D01*
X260700D01*
X261100Y45800D01*
X261400Y46000D01*
X261700Y46200D01*
G01X264500Y45700D02*
Y49200D01*
X263800Y48500D01*
G01Y45700D02*
X265200D01*
G01X267600Y46200D02*
X267900Y45900D01*
X268300Y45800D01*
X268800Y45700D01*
X269400Y45800D01*
X269800Y46000D01*
X270100Y46500D01*
Y46900D01*
X270000Y47400D01*
X269700Y47700D01*
X269300Y47900D01*
X268900Y48000D01*
X268500Y47900D01*
X268000Y47700D01*
X268100Y49200D01*
X269700D01*
G01X267800Y83700D02*
Y87200D01*
X269200D01*
X269700Y87000D01*
X270000Y86800D01*
X270100Y86300D01*
X270000Y85900D01*
X269700Y85600D01*
X269200Y85400D01*
X267800D01*
G01X269200D02*
X270100Y83700D01*
G01X272000Y84200D02*
X272300Y83900D01*
X272700Y83800D01*
X273200Y83700D01*
X273800Y83800D01*
X274200Y84000D01*
X274500Y84500D01*
Y84900D01*
X274400Y85400D01*
X274100Y85700D01*
X273700Y85900D01*
X273300Y86000D01*
X272900Y85900D01*
X272400Y85700D01*
X272500Y87200D01*
X274100D01*
G01X276400Y85200D02*
X276800Y85600D01*
X277200Y85800D01*
X277700Y85900D01*
X278100Y85800D01*
X278400Y85600D01*
X278600Y85200D01*
X278700Y84800D01*
X278600Y84500D01*
X278400Y84100D01*
X278000Y83800D01*
X277600Y83700D01*
X277100Y83800D01*
X276700Y84200D01*
X276500Y84700D01*
X276400Y85300D01*
X276600Y86000D01*
X276700Y86400D01*
X277000Y86800D01*
X277400Y87100D01*
X277800Y87200D01*
X278300Y87100D01*
X278500Y86800D01*
G01X262500Y100100D02*
X262200Y100300D01*
X261800Y100400D01*
X261300D01*
X260800Y100200D01*
X260400Y99900D01*
X260100Y99600D01*
X259800Y99000D01*
Y98500D01*
X259900Y97900D01*
X260100Y97600D01*
X260400Y97200D01*
X260800Y97000D01*
X261200Y96900D01*
X261700D01*
X262100Y97000D01*
X262400Y97200D01*
X262700Y97400D01*
G01X266300Y96900D02*
Y100400D01*
X264100Y97900D01*
X267000D01*
G01X269800Y96900D02*
Y100400D01*
X269100Y99700D01*
G01Y96900D02*
X270500D01*
G01X270300Y156100D02*
Y153600D01*
X270500Y153100D01*
X271000Y152700D01*
X271500Y152600D01*
X272100Y152700D01*
X272600Y153100D01*
X272800Y153600D01*
Y156100D01*
G01X274600Y153300D02*
X274900Y152900D01*
X275400Y152700D01*
X275900Y152600D01*
X276400Y152700D01*
X276800Y152900D01*
X277100Y153300D01*
X277200Y153600D01*
X277100Y154100D01*
X276700Y154300D01*
X276300Y154500D01*
X275700D01*
G01X276300D02*
X276600Y154600D01*
X276900Y154900D01*
X277000Y155300D01*
X276900Y155600D01*
X276600Y155900D01*
X276100Y156100D01*
X275600Y156000D01*
X275000Y155800D01*
G01X280100Y152600D02*
X280600Y152700D01*
X281000Y152800D01*
X281300Y153100D01*
X281400Y153500D01*
X281300Y153900D01*
X281000Y154300D01*
X280400Y154500D01*
X279900D01*
X279500Y154600D01*
X279200Y154900D01*
X279100Y155300D01*
X279300Y155700D01*
X279700Y156000D01*
X280100Y156100D01*
X280600Y156000D01*
X281000Y155700D01*
X281200Y155300D01*
X281100Y154900D01*
X280800Y154600D01*
X280400Y154500D01*
X279900D01*
X279300Y154300D01*
X279000Y153900D01*
X278900Y153500D01*
X279000Y153100D01*
X279300Y152800D01*
X279700Y152700D01*
X280100Y152600D01*
G01X285900Y172800D02*
X285600Y173000D01*
X285200Y173100D01*
X284700D01*
X284200Y172900D01*
X283800Y172600D01*
X283500Y172300D01*
X283200Y171700D01*
Y171200D01*
X283300Y170600D01*
X283500Y170300D01*
X283800Y169900D01*
X284200Y169700D01*
X284600Y169600D01*
X285100D01*
X285500Y169700D01*
X285800Y169900D01*
X286100Y170100D01*
G01X288800Y169600D02*
X288900Y170400D01*
X289100Y171000D01*
X289400Y171600D01*
X289700Y172200D01*
X290100Y173100D01*
X287800D01*
G01X292100Y171100D02*
X292500Y171500D01*
X292900Y171700D01*
X293400Y171800D01*
X293800Y171700D01*
X294100Y171500D01*
X294300Y171100D01*
X294400Y170700D01*
X294300Y170400D01*
X294100Y170000D01*
X293700Y169700D01*
X293300Y169600D01*
X292800Y169700D01*
X292400Y170100D01*
X292200Y170600D01*
X292100Y171200D01*
X292300Y171900D01*
X292400Y172300D01*
X292700Y172700D01*
X293100Y173000D01*
X293500Y173100D01*
X294000Y173000D01*
X294200Y172700D01*
G01X287200Y29700D02*
Y33200D01*
X288600D01*
X289100Y33000D01*
X289400Y32800D01*
X289500Y32300D01*
X289400Y31900D01*
X289100Y31600D01*
X288600Y31400D01*
X287200D01*
G01X288600D02*
X289500Y29700D01*
G01X291500Y32600D02*
X291900Y33000D01*
X292300Y33100D01*
X292800Y33200D01*
X293400Y33100D01*
X293800Y32800D01*
X293900Y32400D01*
X293800Y32100D01*
X293600Y31800D01*
X292400Y31200D01*
X291900Y30800D01*
X291500Y30200D01*
X291400Y29700D01*
X293900D01*
G01X295700Y30400D02*
X296000Y30000D01*
X296500Y29800D01*
X297000Y29700D01*
X297500Y29800D01*
X297900Y30000D01*
X298200Y30400D01*
X298300Y30700D01*
X298200Y31200D01*
X297800Y31400D01*
X297400Y31600D01*
X296800D01*
G01X297400D02*
X297700Y31700D01*
X298000Y32000D01*
X298100Y32400D01*
X298000Y32700D01*
X297700Y33000D01*
X297200Y33200D01*
X296700Y33100D01*
X296100Y32900D01*
G01X300900Y50800D02*
X300600Y51000D01*
X300200Y51100D01*
X299700D01*
X299200Y50900D01*
X298800Y50600D01*
X298500Y50300D01*
X298200Y49700D01*
Y49200D01*
X298300Y48600D01*
X298500Y48300D01*
X298800Y47900D01*
X299200Y47700D01*
X299600Y47600D01*
X300100D01*
X300500Y47700D01*
X300800Y47900D01*
X301100Y48100D01*
G01X303900Y47600D02*
Y51100D01*
X303200Y50400D01*
G01Y47600D02*
X304600D01*
G01X307100Y49100D02*
X307500Y49500D01*
X307900Y49700D01*
X308400Y49800D01*
X308800Y49700D01*
X309100Y49500D01*
X309300Y49100D01*
X309400Y48700D01*
X309300Y48400D01*
X309100Y48000D01*
X308700Y47700D01*
X308300Y47600D01*
X307800Y47700D01*
X307400Y48100D01*
X307200Y48600D01*
X307100Y49200D01*
X307300Y49900D01*
X307400Y50300D01*
X307700Y50700D01*
X308100Y51000D01*
X308500Y51100D01*
X309000Y51000D01*
X309200Y50700D01*
G01X299800Y75300D02*
Y72800D01*
X300000Y72300D01*
X300500Y71900D01*
X301000Y71800D01*
X301600Y71900D01*
X302100Y72300D01*
X302300Y72800D01*
Y75300D01*
G01X305300Y71800D02*
Y75300D01*
X304600Y74600D01*
G01Y71800D02*
X306000D01*
G01X308500Y74700D02*
X308900Y75100D01*
X309300Y75200D01*
X309800Y75300D01*
X310400Y75200D01*
X310800Y74900D01*
X310900Y74500D01*
X310800Y74200D01*
X310600Y73900D01*
X309400Y73300D01*
X308900Y72900D01*
X308500Y72300D01*
X308400Y71800D01*
X310900D01*
G01X297600Y83700D02*
X297300Y83900D01*
X296900Y84000D01*
X296400D01*
X295900Y83800D01*
X295500Y83500D01*
X295200Y83200D01*
X294900Y82600D01*
Y82100D01*
X295000Y81500D01*
X295200Y81200D01*
X295500Y80800D01*
X295900Y80600D01*
X296300Y80500D01*
X296800D01*
X297200Y80600D01*
X297500Y80800D01*
X297800Y81000D01*
G01X300600Y80500D02*
Y84000D01*
X299900Y83300D01*
G01Y80500D02*
X301300D01*
G01X304900D02*
X305400Y80600D01*
X305800Y80700D01*
X306100Y81000D01*
X306200Y81400D01*
X306100Y81800D01*
X305800Y82200D01*
X305200Y82400D01*
X304700D01*
X304300Y82500D01*
X304000Y82800D01*
X303900Y83200D01*
X304100Y83600D01*
X304500Y83900D01*
X304900Y84000D01*
X305400Y83900D01*
X305800Y83600D01*
X306000Y83200D01*
X305900Y82800D01*
X305600Y82500D01*
X305200Y82400D01*
X304700D01*
X304100Y82200D01*
X303800Y81800D01*
X303700Y81400D01*
X303800Y81000D01*
X304100Y80700D01*
X304500Y80600D01*
X304900Y80500D01*
G01X302600Y3600D02*
X302900Y3200D01*
X303200Y3000D01*
X303600Y2900D01*
X304100Y3000D01*
X304500Y3200D01*
X304800Y3600D01*
X304900Y4100D01*
Y6400D01*
G01X306900Y5800D02*
X307300Y6200D01*
X307700Y6300D01*
X308200Y6400D01*
X308800Y6300D01*
X309200Y6000D01*
X309300Y5600D01*
X309200Y5300D01*
X309000Y5000D01*
X307800Y4400D01*
X307300Y4000D01*
X306900Y3400D01*
X306800Y2900D01*
X309300D01*
G01X312300D02*
X312800Y3000D01*
X313200Y3100D01*
X313500Y3400D01*
X313600Y3800D01*
X313500Y4200D01*
X313200Y4600D01*
X312600Y4800D01*
X312100D01*
X311700Y4900D01*
X311400Y5200D01*
X311300Y5600D01*
X311500Y6000D01*
X311900Y6300D01*
X312300Y6400D01*
X312800Y6300D01*
X313200Y6000D01*
X313400Y5600D01*
X313300Y5200D01*
X313000Y4900D01*
X312600Y4800D01*
X312100D01*
X311500Y4600D01*
X311200Y4200D01*
X311100Y3800D01*
X311200Y3400D01*
X311500Y3100D01*
X311900Y3000D01*
X312300Y2900D01*
G01X302100Y40900D02*
Y44400D01*
X303500D01*
X304000Y44200D01*
X304300Y44000D01*
X304400Y43500D01*
X304300Y43100D01*
X304000Y42800D01*
X303500Y42600D01*
X302100D01*
G01X303500D02*
X304400Y40900D01*
G01X306300Y41400D02*
X306600Y41100D01*
X307000Y41000D01*
X307500Y40900D01*
X308100Y41000D01*
X308500Y41200D01*
X308800Y41700D01*
Y42100D01*
X308700Y42600D01*
X308400Y42900D01*
X308000Y43100D01*
X307600Y43200D01*
X307200Y43100D01*
X306700Y42900D01*
X306800Y44400D01*
X308400D01*
G01X310900Y41300D02*
X311300Y41000D01*
X311700Y40900D01*
X312200Y41000D01*
X312600Y41400D01*
X312900Y41900D01*
X313000Y42400D01*
Y43100D01*
X312900Y43600D01*
X312600Y44000D01*
X312300Y44300D01*
X311800Y44400D01*
X311400Y44300D01*
X311000Y44000D01*
X310800Y43700D01*
X310700Y43200D01*
X310800Y42800D01*
X311100Y42400D01*
X311400Y42200D01*
X311800Y42100D01*
X312300Y42200D01*
X312700Y42500D01*
X313000Y43100D01*
G01X308400Y60600D02*
Y64100D01*
X309800D01*
X310300Y63900D01*
X310600Y63700D01*
X310700Y63200D01*
X310600Y62800D01*
X310300Y62500D01*
X309800Y62300D01*
X308400D01*
G01X309800D02*
X310700Y60600D01*
G01X312600Y61100D02*
X312900Y60800D01*
X313300Y60700D01*
X313800Y60600D01*
X314400Y60700D01*
X314800Y60900D01*
X315100Y61400D01*
Y61800D01*
X315000Y62300D01*
X314700Y62600D01*
X314300Y62800D01*
X313900Y62900D01*
X313500Y62800D01*
X313000Y62600D01*
X313100Y64100D01*
X314700D01*
G01X318100Y60600D02*
X318600Y60700D01*
X319000Y60800D01*
X319300Y61100D01*
X319400Y61500D01*
X319300Y61900D01*
X319000Y62300D01*
X318400Y62500D01*
X317900D01*
X317500Y62600D01*
X317200Y62900D01*
X317100Y63300D01*
X317300Y63700D01*
X317700Y64000D01*
X318100Y64100D01*
X318600Y64000D01*
X319000Y63700D01*
X319200Y63300D01*
X319100Y62900D01*
X318800Y62600D01*
X318400Y62500D01*
X317900D01*
X317300Y62300D01*
X317000Y61900D01*
X316900Y61500D01*
X317000Y61100D01*
X317300Y60800D01*
X317700Y60700D01*
X318100Y60600D01*
G01X313400Y271600D02*
X313700Y271200D01*
X314000Y271000D01*
X314400Y270900D01*
X314900Y271000D01*
X315300Y271200D01*
X315600Y271600D01*
X315700Y272100D01*
Y274400D01*
G01X318800Y270900D02*
Y274400D01*
X318100Y273700D01*
G01Y270900D02*
X319500D01*
G01X322000Y272400D02*
X322400Y272800D01*
X322800Y273000D01*
X323300Y273100D01*
X323700Y273000D01*
X324000Y272800D01*
X324200Y272400D01*
X324300Y272000D01*
X324200Y271700D01*
X324000Y271300D01*
X323600Y271000D01*
X323200Y270900D01*
X322700Y271000D01*
X322300Y271400D01*
X322100Y271900D01*
X322000Y272500D01*
X322200Y273200D01*
X322300Y273600D01*
X322600Y274000D01*
X323000Y274300D01*
X323400Y274400D01*
X323900Y274300D01*
X324100Y274000D01*
G01X312800Y306600D02*
Y310100D01*
X314200D01*
X314700Y309900D01*
X315000Y309700D01*
X315100Y309200D01*
X315000Y308800D01*
X314700Y308500D01*
X314200Y308300D01*
X312800D01*
G01X314200D02*
X315100Y306600D01*
G01X319000D02*
Y310100D01*
X316800Y307600D01*
X319700D01*
G01X321300Y307300D02*
X321600Y306900D01*
X322100Y306700D01*
X322600Y306600D01*
X323100Y306700D01*
X323500Y306900D01*
X323800Y307300D01*
X323900Y307600D01*
X323800Y308100D01*
X323400Y308300D01*
X323000Y308500D01*
X322400D01*
G01X323000D02*
X323300Y308600D01*
X323600Y308900D01*
X323700Y309300D01*
X323600Y309600D01*
X323300Y309900D01*
X322800Y310100D01*
X322300Y310000D01*
X321700Y309800D01*
G01X313900Y362000D02*
X314200Y361600D01*
X314500Y361400D01*
X314900Y361300D01*
X315400Y361400D01*
X315800Y361600D01*
X316100Y362000D01*
X316200Y362500D01*
Y364800D01*
G01X319300Y361300D02*
Y364800D01*
X318600Y364100D01*
G01Y361300D02*
X320000D01*
G01X323500D02*
X323600Y362100D01*
X323800Y362700D01*
X324100Y363300D01*
X324400Y363900D01*
X324800Y364800D01*
X322500D01*
G01X319300Y27500D02*
Y31000D01*
X320700D01*
X321200Y30800D01*
X321500Y30600D01*
X321600Y30100D01*
X321500Y29700D01*
X321200Y29400D01*
X320700Y29200D01*
X319300D01*
G01X320700D02*
X321600Y27500D01*
G01X323600Y29000D02*
X324000Y29400D01*
X324400Y29600D01*
X324900Y29700D01*
X325300Y29600D01*
X325600Y29400D01*
X325800Y29000D01*
X325900Y28600D01*
X325800Y28300D01*
X325600Y27900D01*
X325200Y27600D01*
X324800Y27500D01*
X324300Y27600D01*
X323900Y28000D01*
X323700Y28500D01*
X323600Y29100D01*
X323800Y29800D01*
X323900Y30200D01*
X324200Y30600D01*
X324600Y30900D01*
X325000Y31000D01*
X325500Y30900D01*
X325700Y30600D01*
G01X329000Y31000D02*
X328600Y30900D01*
X328200Y30600D01*
X328000Y30200D01*
X327800Y29800D01*
Y29200D01*
Y28700D01*
X328000Y28300D01*
X328200Y27900D01*
X328600Y27600D01*
X329000Y27500D01*
X329500Y27600D01*
X329900Y27900D01*
X330100Y28300D01*
X330300Y28700D01*
Y29200D01*
Y29800D01*
X330100Y30200D01*
X329900Y30600D01*
X329500Y30900D01*
X329000Y31000D01*
G01X320900Y51700D02*
Y49200D01*
X321100Y48700D01*
X321600Y48300D01*
X322100Y48200D01*
X322700Y48300D01*
X323200Y48700D01*
X323400Y49200D01*
Y51700D01*
G01X325200Y48900D02*
X325500Y48500D01*
X326000Y48300D01*
X326500Y48200D01*
X327000Y48300D01*
X327400Y48500D01*
X327700Y48900D01*
X327800Y49200D01*
X327700Y49700D01*
X327300Y49900D01*
X326900Y50100D01*
X326300D01*
G01X326900D02*
X327200Y50200D01*
X327500Y50500D01*
X327600Y50900D01*
X327500Y51200D01*
X327200Y51500D01*
X326700Y51700D01*
X326200Y51600D01*
X325600Y51400D01*
G01X329800Y48600D02*
X330200Y48300D01*
X330600Y48200D01*
X331100Y48300D01*
X331500Y48700D01*
X331800Y49200D01*
X331900Y49700D01*
Y50400D01*
X331800Y50900D01*
X331500Y51300D01*
X331200Y51600D01*
X330700Y51700D01*
X330300Y51600D01*
X329900Y51300D01*
X329700Y51000D01*
X329600Y50500D01*
X329700Y50100D01*
X330000Y49700D01*
X330300Y49500D01*
X330700Y49400D01*
X331200Y49500D01*
X331600Y49800D01*
X331900Y50400D01*
G01X321300Y68300D02*
Y71800D01*
X322700D01*
X323200Y71600D01*
X323500Y71400D01*
X323600Y70900D01*
X323500Y70500D01*
X323200Y70200D01*
X322700Y70000D01*
X321300D01*
G01X322700D02*
X323600Y68300D01*
G01X327500D02*
Y71800D01*
X325300Y69300D01*
X328200D01*
G01X331000Y71800D02*
X330600Y71700D01*
X330200Y71400D01*
X330000Y71000D01*
X329800Y70600D01*
Y70000D01*
Y69500D01*
X330000Y69100D01*
X330200Y68700D01*
X330600Y68400D01*
X331000Y68300D01*
X331500Y68400D01*
X331900Y68700D01*
X332100Y69100D01*
X332300Y69500D01*
Y70000D01*
Y70600D01*
X332100Y71000D01*
X331900Y71400D01*
X331500Y71700D01*
X331000Y71800D01*
G01X317000Y81200D02*
Y84700D01*
X318400D01*
X318900Y84500D01*
X319200Y84300D01*
X319300Y83800D01*
X319200Y83400D01*
X318900Y83100D01*
X318400Y82900D01*
X317000D01*
G01X318400D02*
X319300Y81200D01*
G01X321200Y81900D02*
X321500Y81500D01*
X322000Y81300D01*
X322500Y81200D01*
X323000Y81300D01*
X323400Y81500D01*
X323700Y81900D01*
X323800Y82200D01*
X323700Y82700D01*
X323300Y82900D01*
X322900Y83100D01*
X322300D01*
G01X322900D02*
X323200Y83200D01*
X323500Y83500D01*
X323600Y83900D01*
X323500Y84200D01*
X323200Y84500D01*
X322700Y84700D01*
X322200Y84600D01*
X321600Y84400D01*
G01X325500Y81700D02*
X325800Y81400D01*
X326200Y81300D01*
X326700Y81200D01*
X327300Y81300D01*
X327700Y81500D01*
X328000Y82000D01*
Y82400D01*
X327900Y82900D01*
X327600Y83200D01*
X327200Y83400D01*
X326800Y83500D01*
X326400Y83400D01*
X325900Y83200D01*
X326000Y84700D01*
X327600D01*
G01X320900Y213200D02*
Y216700D01*
X322300D01*
X322800Y216500D01*
X323100Y216300D01*
X323200Y215800D01*
X323100Y215400D01*
X322800Y215100D01*
X322300Y214900D01*
X320900D01*
G01X322300D02*
X323200Y213200D01*
G01X327100D02*
Y216700D01*
X324900Y214200D01*
X327800D01*
G01X330600Y213200D02*
Y216700D01*
X329900Y216000D01*
G01Y213200D02*
X331300D01*
G01X334500Y287500D02*
X332000D01*
X331500Y287300D01*
X331100Y286800D01*
X331000Y286300D01*
X331100Y285700D01*
X331500Y285200D01*
X332000Y285000D01*
X334500D01*
G01X333900Y283100D02*
X334300Y282700D01*
X334400Y282300D01*
X334500Y281800D01*
X334400Y281200D01*
X334100Y280800D01*
X333700Y280700D01*
X333400Y280800D01*
X333100Y281000D01*
X332500Y282200D01*
X332100Y282700D01*
X331500Y283100D01*
X331000Y283200D01*
Y280700D01*
G01Y277800D02*
X331800Y277700D01*
X332400Y277500D01*
X333000Y277200D01*
X333600Y276900D01*
X334500Y276500D01*
Y278800D01*
G01Y377500D02*
X332000D01*
X331500Y377300D01*
X331100Y376800D01*
X331000Y376300D01*
X331100Y375700D01*
X331500Y375200D01*
X332000Y375000D01*
X334500D01*
G01X333900Y373100D02*
X334300Y372700D01*
X334400Y372300D01*
X334500Y371800D01*
X334400Y371200D01*
X334100Y370800D01*
X333700Y370700D01*
X333400Y370800D01*
X333100Y371000D01*
X332500Y372200D01*
X332100Y372700D01*
X331500Y373100D01*
X331000Y373200D01*
Y370700D01*
G01Y367700D02*
X331100Y367200D01*
X331200Y366800D01*
X331500Y366500D01*
X331900Y366400D01*
X332300Y366500D01*
X332700Y366800D01*
X332900Y367400D01*
Y367900D01*
X333000Y368300D01*
X333300Y368600D01*
X333700Y368700D01*
X334100Y368500D01*
X334400Y368100D01*
X334500Y367700D01*
X334400Y367200D01*
X334100Y366800D01*
X333700Y366600D01*
X333300Y366700D01*
X333000Y367000D01*
X332900Y367400D01*
Y367900D01*
X332700Y368500D01*
X332300Y368800D01*
X331900Y368900D01*
X331500Y368800D01*
X331200Y368500D01*
X331100Y368100D01*
X331000Y367700D01*
G01X333500Y3300D02*
X333800Y2900D01*
X334100Y2700D01*
X334500Y2600D01*
X335000Y2700D01*
X335400Y2900D01*
X335700Y3300D01*
X335800Y3800D01*
Y6100D01*
G01X337800Y5500D02*
X338200Y5900D01*
X338600Y6000D01*
X339100Y6100D01*
X339700Y6000D01*
X340100Y5700D01*
X340200Y5300D01*
X340100Y5000D01*
X339900Y4700D01*
X338700Y4100D01*
X338200Y3700D01*
X337800Y3100D01*
X337700Y2600D01*
X340200D01*
G01X342300Y3000D02*
X342700Y2700D01*
X343100Y2600D01*
X343600Y2700D01*
X344000Y3100D01*
X344300Y3600D01*
X344400Y4100D01*
Y4800D01*
X344300Y5300D01*
X344000Y5700D01*
X343700Y6000D01*
X343200Y6100D01*
X342800Y6000D01*
X342400Y5700D01*
X342200Y5400D01*
X342100Y4900D01*
X342200Y4500D01*
X342500Y4100D01*
X342800Y3900D01*
X343200Y3800D01*
X343700Y3900D01*
X344100Y4200D01*
X344400Y4800D01*
G01X345900Y39900D02*
X345600Y40100D01*
X345200Y40200D01*
X344700D01*
X344200Y40000D01*
X343800Y39700D01*
X343500Y39400D01*
X343200Y38800D01*
Y38300D01*
X343300Y37700D01*
X343500Y37400D01*
X343800Y37000D01*
X344200Y36800D01*
X344600Y36700D01*
X345100D01*
X345500Y36800D01*
X345800Y37000D01*
X346100Y37200D01*
G01X347800Y38200D02*
X348200Y38600D01*
X348600Y38800D01*
X349100Y38900D01*
X349500Y38800D01*
X349800Y38600D01*
X350000Y38200D01*
X350100Y37800D01*
X350000Y37500D01*
X349800Y37100D01*
X349400Y36800D01*
X349000Y36700D01*
X348500Y36800D01*
X348100Y37200D01*
X347900Y37700D01*
X347800Y38300D01*
X348000Y39000D01*
X348100Y39400D01*
X348400Y39800D01*
X348800Y40100D01*
X349200Y40200D01*
X349700Y40100D01*
X349900Y39800D01*
G01X354000Y36700D02*
Y40200D01*
X351800Y37700D01*
X354700D01*
G01X345100Y92500D02*
X344800Y92700D01*
X344400Y92800D01*
X343900D01*
X343400Y92600D01*
X343000Y92300D01*
X342700Y92000D01*
X342400Y91400D01*
Y90900D01*
X342500Y90300D01*
X342700Y90000D01*
X343000Y89600D01*
X343400Y89400D01*
X343800Y89300D01*
X344300D01*
X344700Y89400D01*
X345000Y89600D01*
X345300Y89800D01*
G01X348900Y89300D02*
Y92800D01*
X346700Y90300D01*
X349600D01*
G01X351300Y92200D02*
X351700Y92600D01*
X352100Y92700D01*
X352600Y92800D01*
X353200Y92700D01*
X353600Y92400D01*
X353700Y92000D01*
X353600Y91700D01*
X353400Y91400D01*
X352200Y90800D01*
X351700Y90400D01*
X351300Y89800D01*
X351200Y89300D01*
X353700D01*
G01X361900Y103400D02*
X361600Y103600D01*
X361200Y103700D01*
X360700D01*
X360200Y103500D01*
X359800Y103200D01*
X359500Y102900D01*
X359200Y102300D01*
Y101800D01*
X359300Y101200D01*
X359500Y100900D01*
X359800Y100500D01*
X360200Y100300D01*
X360600Y100200D01*
X361100D01*
X361500Y100300D01*
X361800Y100500D01*
X362100Y100700D01*
G01X365700Y100200D02*
Y103700D01*
X363500Y101200D01*
X366400D01*
G01X368000Y100900D02*
X368300Y100500D01*
X368800Y100300D01*
X369300Y100200D01*
X369800Y100300D01*
X370200Y100500D01*
X370500Y100900D01*
X370600Y101200D01*
X370500Y101700D01*
X370100Y101900D01*
X369700Y102100D01*
X369100D01*
G01X369700D02*
X370000Y102200D01*
X370300Y102500D01*
X370400Y102900D01*
X370300Y103200D01*
X370000Y103500D01*
X369500Y103700D01*
X369000Y103600D01*
X368400Y103400D01*
G01X349000Y174500D02*
X348700Y174700D01*
X348300Y174800D01*
X347800D01*
X347300Y174600D01*
X346900Y174300D01*
X346600Y174000D01*
X346300Y173400D01*
Y172900D01*
X346400Y172300D01*
X346600Y172000D01*
X346900Y171600D01*
X347300Y171400D01*
X347700Y171300D01*
X348200D01*
X348600Y171400D01*
X348900Y171600D01*
X349200Y171800D01*
G01X351900Y171300D02*
X352000Y172100D01*
X352200Y172700D01*
X352500Y173300D01*
X352800Y173900D01*
X353200Y174800D01*
X350900D01*
G01X356200Y171300D02*
X356300Y172100D01*
X356500Y172700D01*
X356800Y173300D01*
X357100Y173900D01*
X357500Y174800D01*
X355200D01*
G01X369700Y57500D02*
X369400Y57700D01*
X369000Y57800D01*
X368500D01*
X368000Y57600D01*
X367600Y57300D01*
X367300Y57000D01*
X367000Y56400D01*
Y55900D01*
X367100Y55300D01*
X367300Y55000D01*
X367600Y54600D01*
X368000Y54400D01*
X368400Y54300D01*
X368900D01*
X369300Y54400D01*
X369600Y54600D01*
X369900Y54800D01*
G01X371600Y55800D02*
X372000Y56200D01*
X372400Y56400D01*
X372900Y56500D01*
X373300Y56400D01*
X373600Y56200D01*
X373800Y55800D01*
X373900Y55400D01*
X373800Y55100D01*
X373600Y54700D01*
X373200Y54400D01*
X372800Y54300D01*
X372300Y54400D01*
X371900Y54800D01*
X371700Y55300D01*
X371600Y55900D01*
X371800Y56600D01*
X371900Y57000D01*
X372200Y57400D01*
X372600Y57700D01*
X373000Y57800D01*
X373500Y57700D01*
X373700Y57400D01*
G01X375800Y54800D02*
X376100Y54500D01*
X376500Y54400D01*
X377000Y54300D01*
X377600Y54400D01*
X378000Y54600D01*
X378300Y55100D01*
Y55500D01*
X378200Y56000D01*
X377900Y56300D01*
X377500Y56500D01*
X377100Y56600D01*
X376700Y56500D01*
X376200Y56300D01*
X376300Y57800D01*
X377900D01*
G01X366600Y65800D02*
X366300Y66000D01*
X365900Y66100D01*
X365400D01*
X364900Y65900D01*
X364500Y65600D01*
X364200Y65300D01*
X363900Y64700D01*
Y64200D01*
X364000Y63600D01*
X364200Y63300D01*
X364500Y62900D01*
X364900Y62700D01*
X365300Y62600D01*
X365800D01*
X366200Y62700D01*
X366500Y62900D01*
X366800Y63100D01*
G01X368500Y64100D02*
X368900Y64500D01*
X369300Y64700D01*
X369800Y64800D01*
X370200Y64700D01*
X370500Y64500D01*
X370700Y64100D01*
X370800Y63700D01*
X370700Y63400D01*
X370500Y63000D01*
X370100Y62700D01*
X369700Y62600D01*
X369200Y62700D01*
X368800Y63100D01*
X368600Y63600D01*
X368500Y64200D01*
X368700Y64900D01*
X368800Y65300D01*
X369100Y65700D01*
X369500Y66000D01*
X369900Y66100D01*
X370400Y66000D01*
X370600Y65700D01*
G01X372700Y63300D02*
X373000Y62900D01*
X373500Y62700D01*
X374000Y62600D01*
X374500Y62700D01*
X374900Y62900D01*
X375200Y63300D01*
X375300Y63600D01*
X375200Y64100D01*
X374800Y64300D01*
X374400Y64500D01*
X373800D01*
G01X374400D02*
X374700Y64600D01*
X375000Y64900D01*
X375100Y65300D01*
X375000Y65600D01*
X374700Y65900D01*
X374200Y66100D01*
X373700Y66000D01*
X373100Y65800D01*
G01X383500Y111300D02*
X383200Y111500D01*
X382800Y111600D01*
X382300D01*
X381800Y111400D01*
X381400Y111100D01*
X381100Y110800D01*
X380800Y110200D01*
Y109700D01*
X380900Y109100D01*
X381100Y108800D01*
X381400Y108400D01*
X381800Y108200D01*
X382200Y108100D01*
X382700D01*
X383100Y108200D01*
X383400Y108400D01*
X383700Y108600D01*
G01X385400Y111000D02*
X385800Y111400D01*
X386200Y111500D01*
X386700Y111600D01*
X387300Y111500D01*
X387700Y111200D01*
X387800Y110800D01*
X387700Y110500D01*
X387500Y110200D01*
X386300Y109600D01*
X385800Y109200D01*
X385400Y108600D01*
X385300Y108100D01*
X387800D01*
G01X383800Y165800D02*
X383500Y166000D01*
X383100Y166100D01*
X382600D01*
X382100Y165900D01*
X381700Y165600D01*
X381400Y165300D01*
X381100Y164700D01*
Y164200D01*
X381200Y163600D01*
X381400Y163300D01*
X381700Y162900D01*
X382100Y162700D01*
X382500Y162600D01*
X383000D01*
X383400Y162700D01*
X383700Y162900D01*
X384000Y163100D01*
G01X385600Y163300D02*
X385900Y162900D01*
X386400Y162700D01*
X386900Y162600D01*
X387400Y162700D01*
X387800Y162900D01*
X388100Y163300D01*
X388200Y163600D01*
X388100Y164100D01*
X387700Y164300D01*
X387300Y164500D01*
X386700D01*
G01X387300D02*
X387600Y164600D01*
X387900Y164900D01*
X388000Y165300D01*
X387900Y165600D01*
X387600Y165900D01*
X387100Y166100D01*
X386600Y166000D01*
X386000Y165800D01*
G01X395000Y132900D02*
X397500Y136400D01*
G01X395000D02*
X397500Y132900D01*
G01X400500D02*
Y136400D01*
X399800Y135700D01*
G01Y132900D02*
X401200D01*
G01X404100Y271900D02*
X404400Y271500D01*
X404700Y271300D01*
X405100Y271200D01*
X405600Y271300D01*
X406000Y271500D01*
X406300Y271900D01*
X406400Y272400D01*
Y274700D01*
G01X409500Y271200D02*
Y274700D01*
X408800Y274000D01*
G01Y271200D02*
X410200D01*
G01X414600D02*
Y274700D01*
X412400Y272200D01*
X415300D01*
G01X403800Y315000D02*
X404100Y314600D01*
X404400Y314400D01*
X404800Y314300D01*
X405300Y314400D01*
X405700Y314600D01*
X406000Y315000D01*
X406100Y315500D01*
Y317800D01*
G01X409200Y314300D02*
Y317800D01*
X408500Y317100D01*
G01Y314300D02*
X409900D01*
G01X412300Y314800D02*
X412600Y314500D01*
X413000Y314400D01*
X413500Y314300D01*
X414100Y314400D01*
X414500Y314600D01*
X414800Y315100D01*
Y315500D01*
X414700Y316000D01*
X414400Y316300D01*
X414000Y316500D01*
X413600Y316600D01*
X413200Y316500D01*
X412700Y316300D01*
X412800Y317800D01*
X414400D01*
G01X411000Y42700D02*
X410700Y42900D01*
X410300Y43000D01*
X409800D01*
X409300Y42800D01*
X408900Y42500D01*
X408600Y42200D01*
X408300Y41600D01*
Y41100D01*
X408400Y40500D01*
X408600Y40200D01*
X408900Y39800D01*
X409300Y39600D01*
X409700Y39500D01*
X410200D01*
X410600Y39600D01*
X410900Y39800D01*
X411200Y40000D01*
G01X413900Y39500D02*
X414000Y40300D01*
X414200Y40900D01*
X414500Y41500D01*
X414800Y42100D01*
X415200Y43000D01*
X412900D01*
G01X418300Y39500D02*
X418800Y39600D01*
X419200Y39700D01*
X419500Y40000D01*
X419600Y40400D01*
X419500Y40800D01*
X419200Y41200D01*
X418600Y41400D01*
X418100D01*
X417700Y41500D01*
X417400Y41800D01*
X417300Y42200D01*
X417500Y42600D01*
X417900Y42900D01*
X418300Y43000D01*
X418800Y42900D01*
X419200Y42600D01*
X419400Y42200D01*
X419300Y41800D01*
X419000Y41500D01*
X418600Y41400D01*
X418100D01*
X417500Y41200D01*
X417200Y40800D01*
X417100Y40400D01*
X417200Y40000D01*
X417500Y39700D01*
X417900Y39600D01*
X418300Y39500D01*
G01X412000Y74500D02*
X411700Y74700D01*
X411300Y74800D01*
X410800D01*
X410300Y74600D01*
X409900Y74300D01*
X409600Y74000D01*
X409300Y73400D01*
Y72900D01*
X409400Y72300D01*
X409600Y72000D01*
X409900Y71600D01*
X410300Y71400D01*
X410700Y71300D01*
X411200D01*
X411600Y71400D01*
X411900Y71600D01*
X412200Y71800D01*
G01X414900Y71300D02*
X415000Y72100D01*
X415200Y72700D01*
X415500Y73300D01*
X415800Y73900D01*
X416200Y74800D01*
X413900D01*
G01X418400Y71700D02*
X418800Y71400D01*
X419200Y71300D01*
X419700Y71400D01*
X420100Y71800D01*
X420400Y72300D01*
X420500Y72800D01*
Y73500D01*
X420400Y74000D01*
X420100Y74400D01*
X419800Y74700D01*
X419300Y74800D01*
X418900Y74700D01*
X418500Y74400D01*
X418300Y74100D01*
X418200Y73600D01*
X418300Y73200D01*
X418600Y72800D01*
X418900Y72600D01*
X419300Y72500D01*
X419800Y72600D01*
X420200Y72900D01*
X420500Y73500D01*
G01X411800Y109500D02*
X411500Y109700D01*
X411100Y109800D01*
X410600D01*
X410100Y109600D01*
X409700Y109300D01*
X409400Y109000D01*
X409100Y108400D01*
Y107900D01*
X409200Y107300D01*
X409400Y107000D01*
X409700Y106600D01*
X410100Y106400D01*
X410500Y106300D01*
X411000D01*
X411400Y106400D01*
X411700Y106600D01*
X412000Y106800D01*
G01X414800Y106300D02*
X415300Y106400D01*
X415700Y106500D01*
X416000Y106800D01*
X416100Y107200D01*
X416000Y107600D01*
X415700Y108000D01*
X415100Y108200D01*
X414600D01*
X414200Y108300D01*
X413900Y108600D01*
X413800Y109000D01*
X414000Y109400D01*
X414400Y109700D01*
X414800Y109800D01*
X415300Y109700D01*
X415700Y109400D01*
X415900Y109000D01*
X415800Y108600D01*
X415500Y108300D01*
X415100Y108200D01*
X414600D01*
X414000Y108000D01*
X413700Y107600D01*
X413600Y107200D01*
X413700Y106800D01*
X414000Y106500D01*
X414400Y106400D01*
X414800Y106300D01*
G01X419100D02*
Y109800D01*
X418400Y109100D01*
G01Y106300D02*
X419800D01*
G01X410600Y139500D02*
X410300Y139700D01*
X409900Y139800D01*
X409400D01*
X408900Y139600D01*
X408500Y139300D01*
X408200Y139000D01*
X407900Y138400D01*
Y137900D01*
X408000Y137300D01*
X408200Y137000D01*
X408500Y136600D01*
X408900Y136400D01*
X409300Y136300D01*
X409800D01*
X410200Y136400D01*
X410500Y136600D01*
X410800Y136800D01*
G01X413600Y136300D02*
X414100Y136400D01*
X414500Y136500D01*
X414800Y136800D01*
X414900Y137200D01*
X414800Y137600D01*
X414500Y138000D01*
X413900Y138200D01*
X413400D01*
X413000Y138300D01*
X412700Y138600D01*
X412600Y139000D01*
X412800Y139400D01*
X413200Y139700D01*
X413600Y139800D01*
X414100Y139700D01*
X414500Y139400D01*
X414700Y139000D01*
X414600Y138600D01*
X414300Y138300D01*
X413900Y138200D01*
X413400D01*
X412800Y138000D01*
X412500Y137600D01*
X412400Y137200D01*
X412500Y136800D01*
X412800Y136500D01*
X413200Y136400D01*
X413600Y136300D01*
G01X417900Y139800D02*
X417500Y139700D01*
X417100Y139400D01*
X416900Y139000D01*
X416700Y138600D01*
Y138000D01*
Y137500D01*
X416900Y137100D01*
X417100Y136700D01*
X417500Y136400D01*
X417900Y136300D01*
X418400Y136400D01*
X418800Y136700D01*
X419000Y137100D01*
X419200Y137500D01*
Y138000D01*
Y138600D01*
X419000Y139000D01*
X418800Y139400D01*
X418400Y139700D01*
X417900Y139800D01*
G01X428800Y52100D02*
X429100Y51700D01*
X429400Y51500D01*
X429800Y51400D01*
X430300Y51500D01*
X430700Y51700D01*
X431000Y52100D01*
X431100Y52600D01*
Y54900D01*
G01X433100Y54300D02*
X433500Y54700D01*
X433900Y54800D01*
X434400Y54900D01*
X435000Y54800D01*
X435400Y54500D01*
X435500Y54100D01*
X435400Y53800D01*
X435200Y53500D01*
X434000Y52900D01*
X433500Y52500D01*
X433100Y51900D01*
X433000Y51400D01*
X435500D01*
G01X439300D02*
Y54900D01*
X437100Y52400D01*
X440000D01*
G01X423600Y81500D02*
X423900Y81100D01*
X424200Y80900D01*
X424600Y80800D01*
X425100Y80900D01*
X425500Y81100D01*
X425800Y81500D01*
X425900Y82000D01*
Y84300D01*
G01X427900Y83700D02*
X428300Y84100D01*
X428700Y84200D01*
X429200Y84300D01*
X429800Y84200D01*
X430200Y83900D01*
X430300Y83500D01*
X430200Y83200D01*
X430000Y82900D01*
X428800Y82300D01*
X428300Y81900D01*
X427900Y81300D01*
X427800Y80800D01*
X430300D01*
G01X432100Y81300D02*
X432400Y81000D01*
X432800Y80900D01*
X433300Y80800D01*
X433900Y80900D01*
X434300Y81100D01*
X434600Y81600D01*
Y82000D01*
X434500Y82500D01*
X434200Y82800D01*
X433800Y83000D01*
X433400Y83100D01*
X433000Y83000D01*
X432500Y82800D01*
X432600Y84300D01*
X434200D01*
G01X424200Y115800D02*
X424500Y115400D01*
X424800Y115200D01*
X425200Y115100D01*
X425700Y115200D01*
X426100Y115400D01*
X426400Y115800D01*
X426500Y116300D01*
Y118600D01*
G01X428500Y118000D02*
X428900Y118400D01*
X429300Y118500D01*
X429800Y118600D01*
X430400Y118500D01*
X430800Y118200D01*
X430900Y117800D01*
X430800Y117500D01*
X430600Y117200D01*
X429400Y116600D01*
X428900Y116200D01*
X428500Y115600D01*
X428400Y115100D01*
X430900D01*
G01X432800Y116600D02*
X433200Y117000D01*
X433600Y117200D01*
X434100Y117300D01*
X434500Y117200D01*
X434800Y117000D01*
X435000Y116600D01*
X435100Y116200D01*
X435000Y115900D01*
X434800Y115500D01*
X434400Y115200D01*
X434000Y115100D01*
X433500Y115200D01*
X433100Y115600D01*
X432900Y116100D01*
X432800Y116700D01*
X433000Y117400D01*
X433100Y117800D01*
X433400Y118200D01*
X433800Y118500D01*
X434200Y118600D01*
X434700Y118500D01*
X434900Y118200D01*
G01X425700Y148400D02*
X426000Y148000D01*
X426300Y147800D01*
X426700Y147700D01*
X427200Y147800D01*
X427600Y148000D01*
X427900Y148400D01*
X428000Y148900D01*
Y151200D01*
G01X430000Y150600D02*
X430400Y151000D01*
X430800Y151100D01*
X431300Y151200D01*
X431900Y151100D01*
X432300Y150800D01*
X432400Y150400D01*
X432300Y150100D01*
X432100Y149800D01*
X430900Y149200D01*
X430400Y148800D01*
X430000Y148200D01*
X429900Y147700D01*
X432400D01*
G01X435300D02*
X435400Y148500D01*
X435600Y149100D01*
X435900Y149700D01*
X436200Y150300D01*
X436600Y151200D01*
X434300D01*
G01X446400Y70200D02*
X446100Y70400D01*
X445700Y70500D01*
X445200D01*
X444700Y70300D01*
X444300Y70000D01*
X444000Y69700D01*
X443700Y69100D01*
Y68600D01*
X443800Y68000D01*
X444000Y67700D01*
X444300Y67300D01*
X444700Y67100D01*
X445100Y67000D01*
X445600D01*
X446000Y67100D01*
X446300Y67300D01*
X446600Y67500D01*
G01X450200Y67000D02*
Y70500D01*
X448000Y68000D01*
X450900D01*
G01X445300Y76700D02*
Y80200D01*
X446700D01*
X447200Y80000D01*
X447500Y79800D01*
X447600Y79300D01*
X447500Y78900D01*
X447200Y78600D01*
X446700Y78400D01*
X445300D01*
G01X446700D02*
X447600Y76700D01*
G01X450700D02*
Y80200D01*
X450000Y79500D01*
G01Y76700D02*
X451400D01*
G01X442400Y106800D02*
Y110300D01*
G01X444600D02*
X442400Y108100D01*
G01X444900Y106800D02*
X443400Y109100D01*
G01X446700Y107300D02*
X447000Y107000D01*
X447400Y106900D01*
X447900Y106800D01*
X448500Y106900D01*
X448900Y107100D01*
X449200Y107600D01*
Y108000D01*
X449100Y108500D01*
X448800Y108800D01*
X448400Y109000D01*
X448000Y109100D01*
X447600Y109000D01*
X447100Y108800D01*
X447200Y110300D01*
X448800D01*
G01Y161000D02*
X445300D01*
G01Y163200D02*
X447500Y161000D01*
G01X448800Y163500D02*
X446500Y162000D01*
G01X448800Y166500D02*
X445300D01*
X446000Y165800D01*
G01X448800D02*
Y167200D01*
G01X449200Y206000D02*
X445700D01*
G01Y208200D02*
X447900Y206000D01*
G01X449200Y208500D02*
X446900Y207000D01*
G01X446300Y210400D02*
X445900Y210800D01*
X445800Y211200D01*
X445700Y211700D01*
X445800Y212300D01*
X446100Y212700D01*
X446500Y212800D01*
X446800Y212700D01*
X447100Y212500D01*
X447700Y211300D01*
X448100Y210800D01*
X448700Y210400D01*
X449200Y210300D01*
Y212800D01*
G01X449700Y248200D02*
X446200D01*
G01Y250400D02*
X448400Y248200D01*
G01X449700Y250700D02*
X447400Y249200D01*
G01X449000Y252500D02*
X449400Y252800D01*
X449600Y253300D01*
X449700Y253800D01*
X449600Y254300D01*
X449400Y254700D01*
X449000Y255000D01*
X448700Y255100D01*
X448200Y255000D01*
X448000Y254600D01*
X447800Y254200D01*
Y253600D01*
G01Y254200D02*
X447700Y254500D01*
X447400Y254800D01*
X447000Y254900D01*
X446700Y254800D01*
X446400Y254500D01*
X446200Y254000D01*
X446300Y253500D01*
X446500Y252900D01*
G01X449400Y292000D02*
X445900D01*
G01Y294200D02*
X448100Y292000D01*
G01X449400Y294500D02*
X447100Y293000D01*
G01X449400Y298300D02*
X445900D01*
X448400Y296100D01*
Y299000D01*
G54D14*
G01X19100Y273200D02*
X-3900D01*
Y312500D01*
X43300D01*
Y299700D01*
G01X37200Y273400D02*
X43100D01*
Y280800D01*
G01X115000Y290000D02*
X75000D01*
Y210000D01*
X115000D01*
Y290000D01*
G01Y380000D02*
X75000D01*
Y300000D01*
X115000D01*
Y380000D01*
G01X135800Y41000D02*
X134500D01*
Y42100D01*
G01Y59300D02*
Y60700D01*
X135600D01*
G01X155300Y42300D02*
X152800Y39800D01*
G01X153400Y60800D02*
X154800D01*
Y59700D01*
G01X205000Y290000D02*
X165000D01*
Y210000D01*
X205000D01*
Y290000D01*
G01Y380000D02*
X165000D01*
Y300000D01*
X205000D01*
Y380000D01*
G01X295000Y290000D02*
X255000D01*
Y210000D01*
X295000D01*
Y290000D01*
G01Y380000D02*
X255000D01*
Y300000D01*
X295000D01*
Y380000D01*
G01X385000Y290000D02*
X345000D01*
Y210000D01*
X385000D01*
Y290000D01*
G01Y380000D02*
X345000D01*
Y300000D01*
X385000D01*
Y380000D01*
G01X372400Y143100D02*
Y122200D01*
G03X381600Y113000I9232J32D01*
G01X382800D01*
G03X392000Y122200I-32J9232D01*
G01Y143700D01*
G03X382200Y153500I-9800J0D01*
G03X372400Y143700I0J-9800D01*
G01Y143100D01*
G01X380000Y18000D02*
X380500Y18500D01*
X381100Y18700D01*
X381800Y18800D01*
X382600Y18600D01*
X383200Y18200D01*
X383400Y17700D01*
X383300Y17200D01*
X382900Y16800D01*
X381300Y16000D01*
X380500Y15400D01*
X380000Y14500D01*
X379800Y13800D01*
X383400D01*
G01X387900Y18800D02*
X387200Y18600D01*
X386700Y18200D01*
X386400Y17700D01*
X386100Y17000D01*
Y16300D01*
Y15500D01*
X386400Y14900D01*
X386700Y14400D01*
X387200Y14000D01*
X387900Y13800D01*
X388600Y14000D01*
X389100Y14400D01*
X389400Y14900D01*
X389700Y15500D01*
Y16300D01*
Y17000D01*
X389400Y17700D01*
X389100Y18200D01*
X388600Y18600D01*
X387900Y18800D01*
G01X394200Y13800D02*
Y18800D01*
X393200Y17800D01*
G01Y13800D02*
X395200D01*
G01X398900Y15900D02*
X399500Y16500D01*
X400000Y16800D01*
X400700Y17000D01*
X401300Y16800D01*
X401700Y16500D01*
X402000Y16000D01*
X402100Y15400D01*
X402000Y14900D01*
X401700Y14400D01*
X401200Y14000D01*
X400600Y13800D01*
X399900Y14000D01*
X399300Y14500D01*
X399000Y15200D01*
X398900Y16000D01*
X399100Y17100D01*
X399300Y17700D01*
X399700Y18300D01*
X400300Y18700D01*
X400900Y18800D01*
X401500Y18600D01*
X401900Y18200D01*
G01X405700Y15500D02*
X407900D01*
G01X414100Y13800D02*
Y18800D01*
X411000Y15200D01*
X415200D01*
G01X382200Y25500D02*
Y27700D01*
X380500Y30500D01*
G01X383900D02*
X382200Y27700D01*
G01X390000Y25500D02*
Y28800D01*
G01Y28300D02*
X389700Y28600D01*
X389200Y28700D01*
X388600Y28800D01*
X388000Y28700D01*
X387500Y28300D01*
X387200Y27800D01*
X387000Y27200D01*
X387200Y26500D01*
X387500Y26000D01*
X388000Y25700D01*
X388600Y25500D01*
X389200Y25600D01*
X389700Y25800D01*
X390000Y26200D01*
G01X393400Y25500D02*
Y28800D01*
G01Y28000D02*
X393700Y28400D01*
X394200Y28700D01*
X394900Y28800D01*
X395500Y28700D01*
X396000Y28400D01*
X396200Y27800D01*
Y25500D01*
G01X399900Y24200D02*
X400500Y23900D01*
X401200Y23800D01*
X401800Y23900D01*
X402300Y24300D01*
X402600Y24900D01*
Y28800D01*
G01Y28200D02*
X402300Y28500D01*
X401800Y28700D01*
X401200Y28800D01*
X400500Y28700D01*
X400100Y28300D01*
X399800Y27700D01*
X399600Y27200D01*
X399700Y26700D01*
X400000Y26100D01*
X400500Y25700D01*
X401200Y25500D01*
X401700Y25600D01*
X402300Y25900D01*
X402600Y26200D01*
G01X406200Y28800D02*
X408600Y25500D01*
G01Y28800D02*
X406200Y25500D01*
G01X412500Y28800D02*
X414900Y25500D01*
G01Y28800D02*
X412500Y25500D01*
G01X467500Y121200D02*
Y96800D01*
X453300D01*
Y121200D01*
X467500D01*
G01X452600Y153000D02*
Y177400D01*
X466800D01*
Y153000D01*
X452600D01*
G01X452500Y196700D02*
Y221100D01*
X466700D01*
Y196700D01*
X452500D01*
G01Y240000D02*
Y264400D01*
X466700D01*
Y240000D01*
X452500D01*
G01Y282800D02*
Y307200D01*
X466700D01*
Y282800D01*
X452500D01*
M02*
