G04 ================== begin FILE IDENTIFICATION RECORD ==================*
G04 Layout Name:  E:/项目资料/魔方机器人/3_Hardware/V2/Pcb/Cuberobot.brd*
G04 Film Name:    SOLDERMASK_BOTTOM*
G04 File Format:  Gerber RS274X*
G04 File Origin:  Cadence Allegro 16.6-P004*
G04 Origin Date:  Thu Apr 07 19:28:32 2016*
G04 *
G04 Layer:  PIN/SOLDERMASK_BOTTOM*
G04 Layer:  PACKAGE GEOMETRY/SOLDERMASK_BOTTOM*
G04 Layer:  BOARD GEOMETRY/OUTLINE*
G04 Layer:  BOARD GEOMETRY/SOLDERMASK_BOTTOM*
G04 *
G04 Offset:    (0 0)*
G04 Mirror:    No*
G04 Mode:      Positive*
G04 Rotation:  0*
G04 FullContactRelief:  No*
G04 UndefLineWidth:     6*
G04 ================== end FILE IDENTIFICATION RECORD ====================*
%FSLAX35Y35*MOIN*%
%IR0*IPPOS*OFA0.00000B0.00000*MIA0B0*SFA1.00000B1.00000*%
%ADD15C,.053*%
%ADD12C,.067*%
%ADD14R,.067X.067*%
%ADD13R,.181X.142*%
%ADD11R,.142X.181*%
%ADD10R,.173X.173*%
%ADD16C,.01*%
G75*
%LPD*%
G75*
G54D10*
X20000Y20000D03*
Y370000D03*
X450000Y20000D03*
Y370000D03*
G54D11*
X13600Y290500D03*
X43100D03*
G54D12*
X22400Y147000D03*
X18500Y207800D03*
X38200D03*
X61900Y172100D03*
X70000Y215000D03*
Y225000D03*
Y235000D03*
Y245000D03*
Y255000D03*
Y265000D03*
Y275000D03*
Y305000D03*
Y315000D03*
Y325000D03*
Y335000D03*
Y345000D03*
Y355000D03*
Y365000D03*
X92300Y45800D03*
Y55800D03*
Y65800D03*
X120000Y225000D03*
Y215000D03*
Y235000D03*
Y255000D03*
Y245000D03*
Y265000D03*
Y285000D03*
Y275000D03*
Y315000D03*
Y305000D03*
Y325000D03*
Y345000D03*
Y335000D03*
Y355000D03*
Y375000D03*
Y365000D03*
X148400Y119900D03*
X140000Y235000D03*
Y245000D03*
Y255000D03*
Y325000D03*
Y335000D03*
Y345000D03*
X160000Y215000D03*
Y225000D03*
Y235000D03*
Y245000D03*
Y255000D03*
Y265000D03*
Y275000D03*
Y305000D03*
Y315000D03*
Y325000D03*
Y335000D03*
Y345000D03*
Y355000D03*
Y365000D03*
X179700Y7600D03*
X182700Y120000D03*
X189700Y7600D03*
X199700D03*
X203700Y85300D03*
Y105300D03*
Y95300D03*
X210000Y225000D03*
Y215000D03*
Y235000D03*
Y255000D03*
Y245000D03*
Y265000D03*
Y285000D03*
Y275000D03*
Y315000D03*
Y305000D03*
Y325000D03*
Y345000D03*
Y335000D03*
Y355000D03*
Y375000D03*
Y365000D03*
X230000Y235000D03*
Y245000D03*
Y255000D03*
Y325000D03*
Y335000D03*
Y345000D03*
X249600Y15600D03*
X250000Y215000D03*
Y225000D03*
Y235000D03*
Y245000D03*
Y255000D03*
Y265000D03*
Y275000D03*
Y305000D03*
Y315000D03*
Y325000D03*
Y335000D03*
Y345000D03*
Y355000D03*
Y365000D03*
X281800Y15500D03*
X300000Y225000D03*
Y215000D03*
Y235000D03*
Y255000D03*
Y245000D03*
Y265000D03*
Y285000D03*
Y275000D03*
Y315000D03*
Y305000D03*
Y325000D03*
Y345000D03*
Y335000D03*
Y355000D03*
Y375000D03*
Y365000D03*
X313500Y15600D03*
X320000Y235000D03*
Y245000D03*
Y255000D03*
Y325000D03*
Y335000D03*
Y345000D03*
X344900Y15500D03*
X340000Y215000D03*
Y225000D03*
Y235000D03*
Y245000D03*
Y255000D03*
Y265000D03*
Y275000D03*
Y305000D03*
Y315000D03*
Y325000D03*
Y335000D03*
Y345000D03*
Y355000D03*
Y365000D03*
X390000Y225000D03*
Y215000D03*
Y235000D03*
Y255000D03*
Y245000D03*
Y265000D03*
Y285000D03*
Y275000D03*
Y315000D03*
Y305000D03*
Y325000D03*
Y345000D03*
Y335000D03*
Y355000D03*
Y375000D03*
Y365000D03*
X408400Y92000D03*
Y126200D03*
X408100Y158200D03*
X408800Y62400D03*
X418800D03*
X418400Y92000D03*
Y126200D03*
X418100Y158200D03*
X410000Y235000D03*
Y245000D03*
Y255000D03*
Y325000D03*
Y335000D03*
Y345000D03*
G54D13*
X28400Y272800D03*
G54D14*
X70000Y285000D03*
Y375000D03*
X92300Y35800D03*
X140000Y265000D03*
Y355000D03*
X160000Y285000D03*
Y375000D03*
X209700Y7600D03*
X239600Y15600D03*
X230000Y265000D03*
Y355000D03*
X250000Y285000D03*
Y375000D03*
X271800Y15500D03*
X303500Y15600D03*
X320000Y265000D03*
Y355000D03*
X334900Y15500D03*
X340000Y285000D03*
Y375000D03*
X410000Y265000D03*
Y355000D03*
X428800Y62400D03*
X428400Y92000D03*
Y126200D03*
X428100Y158200D03*
G54D15*
X382200Y122200D03*
Y143100D03*
G54D16*
G01X10000Y0D02*
X460000D01*
G03X470000Y10000I0J10000D01*
G01Y380000D01*
G03X460000Y390000I-10000J0D01*
G01X10000D01*
G03X0Y380000I0J-10000D01*
G01Y10000D01*
G03X10000Y0I10000J0D01*
M02*
