G04 ================== begin FILE IDENTIFICATION RECORD ==================*
G04 Layout Name:  E:/项目资料/魔方机器人/3_Hardware/V2/Pcb/Cuberobot.brd*
G04 Film Name:    SOLDERMASK_TOP*
G04 File Format:  Gerber RS274X*
G04 File Origin:  Cadence Allegro 16.6-P004*
G04 Origin Date:  Thu Apr 07 19:28:32 2016*
G04 *
G04 Layer:  PIN/SOLDERMASK_TOP*
G04 Layer:  PACKAGE GEOMETRY/SOLDERMASK_TOP*
G04 Layer:  BOARD GEOMETRY/OUTLINE*
G04 Layer:  BOARD GEOMETRY/SOLDERMASK_TOP*
G04 *
G04 Offset:    (0 0)*
G04 Mirror:    No*
G04 Mode:      Positive*
G04 Rotation:  0*
G04 FullContactRelief:  No*
G04 UndefLineWidth:     6*
G04 ================== end FILE IDENTIFICATION RECORD ====================*
%FSLAX35Y35*MOIN*%
%IR0*IPPOS*OFA0.00000B0.00000*MIA0B0*SFA1.00000B1.00000*%
%ADD37C,.053*%
%ADD25R,.041X.009*%
%ADD29R,.009X.041*%
%ADD15C,.067*%
%ADD22R,.067X.067*%
%AMMACRO18*
21,1,.086,.106,0.0,0.0,90.597*%
%ADD18MACRO18*%
%ADD30R,.121X.121*%
%ADD11R,.11X.146*%
%ADD36R,.02X.016*%
%ADD35R,.016X.02*%
%ADD16R,.181X.142*%
%ADD28R,.014X.035*%
%ADD27R,.046X.03*%
%ADD13R,.142X.181*%
%ADD24R,.035X.014*%
%ADD34R,.017X.061*%
%ADD33R,.061X.017*%
%ADD26R,.024X.028*%
%ADD19R,.038X.041*%
%ADD14R,.041X.038*%
%ADD20R,.063X.055*%
%ADD12R,.07X.057*%
%ADD32R,.091X.028*%
%ADD31R,.055X.063*%
%ADD17R,.028X.091*%
%ADD10R,.173X.173*%
%ADD21R,.075X.067*%
%ADD38R,.056X.086*%
%ADD23R,.049X.059*%
%ADD39C,.01*%
G75*
%LPD*%
G75*
G54D10*
X20000Y20000D03*
Y370000D03*
X450000Y20000D03*
Y370000D03*
G54D20*
X61800Y106200D03*
Y113600D03*
G54D11*
X14400Y72100D03*
X47000D03*
G54D21*
X78600Y90900D03*
Y101900D03*
X101900Y88400D03*
Y99400D03*
X105100Y136300D03*
Y147300D03*
X166800Y136700D03*
Y147700D03*
G54D12*
X15300Y117900D03*
Y133300D03*
G54D30*
X144300Y50800D03*
G54D31*
X161300Y73100D03*
X153900D03*
G54D13*
X13600Y290500D03*
X43100D03*
G54D22*
X70000Y285000D03*
Y375000D03*
X92300Y35800D03*
X140000Y265000D03*
Y355000D03*
X160000Y285000D03*
Y375000D03*
X209700Y7600D03*
X239600Y15600D03*
X230000Y265000D03*
Y355000D03*
X250000Y285000D03*
Y375000D03*
X271800Y15500D03*
X303500Y15600D03*
X320000Y265000D03*
Y355000D03*
X334900Y15500D03*
X340000Y285000D03*
Y375000D03*
X410000Y265000D03*
Y355000D03*
X428800Y62400D03*
X428400Y92000D03*
Y126200D03*
X428100Y158200D03*
G54D23*
X120700Y44000D03*
Y35400D03*
X114500D03*
Y44000D03*
G54D32*
X172300Y45000D03*
Y50000D03*
Y55000D03*
Y60000D03*
X192700Y45000D03*
Y60000D03*
Y55000D03*
Y50000D03*
G54D14*
X19200Y104600D03*
X24400D03*
X38700Y143600D03*
X43900D03*
X53800Y156300D03*
X59000D03*
X71700D03*
X66500D03*
X127700Y33900D03*
X132900D03*
X126300Y69800D03*
X131500D03*
X137300Y77600D03*
X142500D03*
X267500Y70200D03*
X264900Y78900D03*
X270100D03*
X279900Y47200D03*
X274700D03*
X272700Y70200D03*
X282100Y98700D03*
X276900D03*
X294500Y39400D03*
X289300D03*
X288900Y47300D03*
X294100D03*
X287100Y165500D03*
X292300D03*
X327800Y37500D03*
X322600D03*
X329500Y62300D03*
X324300D03*
X323000Y208100D03*
X328200D03*
X346200Y45100D03*
X343400Y69500D03*
X338200D03*
X345200Y85500D03*
X351400Y45100D03*
X357000Y55900D03*
X353400Y64100D03*
X358600D03*
X350400Y85500D03*
X350200Y167200D03*
X355400D03*
X362200Y55900D03*
X382300Y104300D03*
X387500D03*
X382100Y159200D03*
X387300D03*
X416400Y46800D03*
X411200D03*
X417000Y78500D03*
X411800D03*
X417000Y113400D03*
X411800D03*
X415900Y143600D03*
X410700D03*
X461000Y68300D03*
X455800D03*
X461500Y77900D03*
X456300D03*
G54D33*
X287800Y103700D03*
Y105600D03*
Y107600D03*
Y109600D03*
Y111600D03*
Y113500D03*
Y115500D03*
Y117500D03*
Y119400D03*
Y121400D03*
Y123400D03*
Y125300D03*
Y127300D03*
Y129300D03*
Y131200D03*
Y133200D03*
Y135200D03*
Y137100D03*
Y139100D03*
Y141100D03*
Y143000D03*
Y145000D03*
Y147000D03*
Y149000D03*
Y150900D03*
X351600Y103700D03*
Y119400D03*
Y117500D03*
Y115500D03*
Y113500D03*
Y111600D03*
Y109600D03*
Y107600D03*
Y105600D03*
Y133200D03*
Y131200D03*
Y129300D03*
Y127300D03*
Y125300D03*
Y123400D03*
Y121400D03*
Y149000D03*
Y147000D03*
Y145000D03*
Y143000D03*
Y141100D03*
Y139100D03*
Y137100D03*
Y135200D03*
Y150900D03*
G54D24*
X134100Y43700D03*
Y57900D03*
X154500Y43700D03*
Y57900D03*
X280400Y58000D03*
Y60000D03*
Y61900D03*
Y63900D03*
Y65900D03*
Y67900D03*
X296600Y58200D03*
Y68000D03*
Y66100D03*
Y64100D03*
Y62100D03*
Y60200D03*
G54D15*
X22400Y147000D03*
X18500Y207800D03*
X38200D03*
X61900Y172100D03*
X70000Y215000D03*
Y225000D03*
Y235000D03*
Y245000D03*
Y255000D03*
Y265000D03*
Y275000D03*
Y305000D03*
Y315000D03*
Y325000D03*
Y335000D03*
Y345000D03*
Y355000D03*
Y365000D03*
X92300Y45800D03*
Y55800D03*
Y65800D03*
X120000Y225000D03*
Y215000D03*
Y235000D03*
Y255000D03*
Y245000D03*
Y265000D03*
Y285000D03*
Y275000D03*
Y315000D03*
Y305000D03*
Y325000D03*
Y345000D03*
Y335000D03*
Y355000D03*
Y375000D03*
Y365000D03*
X148400Y119900D03*
X140000Y235000D03*
Y245000D03*
Y255000D03*
Y325000D03*
Y335000D03*
Y345000D03*
X160000Y215000D03*
Y225000D03*
Y235000D03*
Y245000D03*
Y255000D03*
Y265000D03*
Y275000D03*
Y305000D03*
Y315000D03*
Y325000D03*
Y335000D03*
Y345000D03*
Y355000D03*
Y365000D03*
X179700Y7600D03*
X182700Y120000D03*
X189700Y7600D03*
X199700D03*
X203700Y85300D03*
Y105300D03*
Y95300D03*
X210000Y225000D03*
Y215000D03*
Y235000D03*
Y255000D03*
Y245000D03*
Y265000D03*
Y285000D03*
Y275000D03*
Y315000D03*
Y305000D03*
Y325000D03*
Y345000D03*
Y335000D03*
Y355000D03*
Y375000D03*
Y365000D03*
X230000Y235000D03*
Y245000D03*
Y255000D03*
Y325000D03*
Y335000D03*
Y345000D03*
X249600Y15600D03*
X250000Y215000D03*
Y225000D03*
Y235000D03*
Y245000D03*
Y255000D03*
Y265000D03*
Y275000D03*
Y305000D03*
Y315000D03*
Y325000D03*
Y335000D03*
Y345000D03*
Y355000D03*
Y365000D03*
X281800Y15500D03*
X300000Y225000D03*
Y215000D03*
Y235000D03*
Y255000D03*
Y245000D03*
Y265000D03*
Y285000D03*
Y275000D03*
Y315000D03*
Y305000D03*
Y325000D03*
Y345000D03*
Y335000D03*
Y355000D03*
Y375000D03*
Y365000D03*
X313500Y15600D03*
X320000Y235000D03*
Y245000D03*
Y255000D03*
Y325000D03*
Y335000D03*
Y345000D03*
X344900Y15500D03*
X340000Y215000D03*
Y225000D03*
Y235000D03*
Y245000D03*
Y255000D03*
Y265000D03*
Y275000D03*
Y305000D03*
Y315000D03*
Y325000D03*
Y335000D03*
Y345000D03*
Y355000D03*
Y365000D03*
X390000Y225000D03*
Y215000D03*
Y235000D03*
Y255000D03*
Y245000D03*
Y265000D03*
Y285000D03*
Y275000D03*
Y315000D03*
Y305000D03*
Y325000D03*
Y345000D03*
Y335000D03*
Y355000D03*
Y375000D03*
Y365000D03*
X408400Y92000D03*
Y126200D03*
X408100Y158200D03*
X408800Y62400D03*
X418800D03*
X418400Y92000D03*
Y126200D03*
X418100Y158200D03*
X410000Y235000D03*
Y245000D03*
Y255000D03*
Y325000D03*
Y335000D03*
Y345000D03*
G54D34*
X300000Y95400D03*
X298000D03*
X296100D03*
Y159200D03*
X298000D03*
X300000D03*
X313800Y95400D03*
X311800D03*
X309900D03*
X307900D03*
X305900D03*
X304000D03*
X302000D03*
Y159200D03*
X304000D03*
X305900D03*
X307900D03*
X309900D03*
X311800D03*
X313800D03*
X329500Y95400D03*
X327600D03*
X325600D03*
X323600D03*
X321700D03*
X319700D03*
X317700D03*
X315800D03*
Y159200D03*
X317700D03*
X319700D03*
X321700D03*
X323600D03*
X325600D03*
X327600D03*
X329500D03*
X343300Y95400D03*
X341400D03*
X339400D03*
X337400D03*
X335400D03*
X333500D03*
X331500D03*
Y159200D03*
X333500D03*
X335400D03*
X337400D03*
X339400D03*
X341400D03*
X343300D03*
G54D16*
X28400Y272800D03*
G54D25*
X134500Y45300D03*
Y46900D03*
Y48400D03*
Y50000D03*
Y51600D03*
Y53200D03*
Y54700D03*
Y56300D03*
X154100D03*
Y54700D03*
Y53200D03*
Y51600D03*
Y50000D03*
Y48400D03*
Y46900D03*
Y45300D03*
G54D17*
X43800Y112900D03*
X38800D03*
X33800D03*
Y133300D03*
X38800D03*
X43800D03*
X48800Y112900D03*
Y133300D03*
G54D26*
X123800Y58900D03*
Y63300D03*
G54D35*
X344200Y52400D03*
X342200D03*
X340200D03*
X338200D03*
Y62600D03*
X340200D03*
X342200D03*
X344200D03*
G54D27*
X134800Y90700D03*
Y94400D03*
Y98100D03*
X143400D03*
Y90700D03*
X151700Y145100D03*
Y137700D03*
X143100D03*
Y141400D03*
Y145100D03*
G54D36*
X336100Y54500D03*
Y56500D03*
Y58500D03*
Y60500D03*
X346300Y58500D03*
Y56500D03*
Y54500D03*
Y60500D03*
G54D18*
X41300Y123100D03*
G54D19*
X61600Y92900D03*
Y98100D03*
X58900Y198400D03*
Y203600D03*
X60300Y310100D03*
Y304900D03*
X68900Y59200D03*
Y46800D03*
Y52000D03*
Y64400D03*
X82700Y27500D03*
Y32700D03*
Y46700D03*
Y51900D03*
X115600Y96900D03*
Y91700D03*
X119400Y137700D03*
Y142900D03*
X124500Y96900D03*
Y91700D03*
X128800Y137700D03*
Y142900D03*
X147900Y220300D03*
Y215100D03*
X149000Y310800D03*
Y305600D03*
X156500Y98000D03*
Y92800D03*
X172600Y98100D03*
Y92900D03*
X183500Y144600D03*
Y139400D03*
X198500Y145100D03*
Y139900D03*
X239600Y30000D03*
Y35200D03*
X238800Y219200D03*
Y214000D03*
X237500Y311300D03*
Y306100D03*
X271800Y29900D03*
Y35100D03*
X283100Y83800D03*
Y78600D03*
X291100Y84200D03*
Y79000D03*
X306300Y31600D03*
Y36800D03*
X331500Y80700D03*
Y85900D03*
X328800Y310900D03*
Y305700D03*
X365000Y113500D03*
Y108300D03*
G54D28*
X137200Y40600D03*
Y61000D03*
X151400Y40600D03*
Y61000D03*
X285300Y55100D03*
X283400D03*
X283600Y70800D03*
X285500D03*
X293200Y55100D03*
X291200D03*
X289300D03*
X287300D03*
X287500Y70800D03*
X289500D03*
X291400D03*
X293400D03*
G54D37*
X382200Y122200D03*
Y143100D03*
G54D38*
X460400Y92500D03*
Y125500D03*
X459700Y148700D03*
Y181700D03*
X459600Y192400D03*
Y225400D03*
Y235700D03*
Y268700D03*
Y278500D03*
Y311500D03*
G54D29*
X149800Y41000D03*
X148200D03*
X146700D03*
X145100D03*
X143500D03*
X141900D03*
X140400D03*
X138800D03*
Y60600D03*
X140400D03*
X141900D03*
X143500D03*
X145100D03*
X146700D03*
X148200D03*
X149800D03*
G54D39*
G01X10000Y0D02*
X460000D01*
G03X470000Y10000I0J10000D01*
G01Y380000D01*
G03X460000Y390000I-10000J0D01*
G01X10000D01*
G03X0Y380000I0J-10000D01*
G01Y10000D01*
G03X10000Y0I10000J0D01*
M02*
